<?xml version="1.0" encoding="UTF-8"?>
<svg viewBox="0 0 640 480" xmlns="http://www.w3.org/2000/svg">
 <g stroke="#fff" stroke-width="10">
  <path d="m156.39 748.27c-7.5862 33.214 15.369 44.612 36.581 57.257 33.711 3.8038 63.832 0.4281 89.066-12.724-10.756-21.405-19.08-43.568-46.124-58.847-33.331-5.4636-63.027-5.4746-79.523 14.314h2.44e-4z"/>
  <path d="m857.38-155.41c-20.175 0.52359-43.237 10.079-68.038 25.142l-60.737 98.968c-25.314-36.823-55.31-66.961-119.23-97.845-73.802 31.28-98.253 74.034-118.06 133.83 18.38 32.485-15.877 58.754 122.6 108 5.3909-1.0947 22.757 8.1912 37.108 1.1232l34.861 25.833c9.677 43.486 17.27 86.974 47.216 130.46 66.108 37.039 129.45 69.306 224.94 103.46v24.753c-58.242-46.519-63.097-19.473-104.58-15.724l-34.861 29.246c-16.636 25.819-34.65 58.781-48.383 93.309-15.492-24.245-39.842-39.607-64.107-55.078-44.499-97.503-100.9-199.08-166.44-314.92-47.062-19.296-70.934-0.45648-91.062 37.108-70.827-2.9357-46.042-56.222-66.353-91.063l-22.506-22.506c-0.98144-17.233 13.431-25.235 26.999-33.738-6.9429 18.369-12.14 36.752 4.4927 55.121 46.294 10.567 50.396-22.237 53.998-48.382-132.21-119.32-91.455-16.238-130.46-15.724l-22.506-29.245 33.738-29.246c-14.618-20.496-32.642-36.496-56.245-45.013-32.897 15.556-44.969 45.037-60.737 72.012-127.9-39.094-124.6 83.158-80.954 110.2l-6.6096 40.736c-20.773 2.5056-40.827 7.8246-58.621 22.247-10.679 11.433-11.003 20.801-6.739 29.246 19.749 24.39 30.594 8.7717 44.97 8.9853-12.143 0.74628 4.3928 13.922-6.6526 16.459-64.574 14.829-70.855 86.461-81.084 156.72 21.124 51.602 27.779 117.73 67.52 150.72 8.6108 40.865 29.661 77.557 56.201 112.45l7.8191 6.6958c-31.023 31.873-69.012 56.292-82.596 99.443-14.407 45.767-29.06 78.304-53.998 128.08-3.3335 6.61-2.2009 10.105 0.51831 12.355 4.3874 2.5945 36.926 26.765 54.374 23.493 3.1965-0.59936 1.3328-0.51941 4.1716 0.4928 65.316 23.286 77.906-24.387 43.03-63.893-11.542-13.074 61.015 68.3-16.696 70.82 2.7473 2.5582-6.0278-2.0051-21.487-5.5466-3.1687-0.72595-6.6179-1.4089-10.306-1.9789-18.039-2.7874-31.922-7.0603-34.188-12.565-14.749 22.24-16.426 62.417-13.552 87.279 0.36792-1.847-1.0706 3.5302 3.0754 4.2637 15.097-7.8746 26.747-10.899 38.166-11.924 44.253-1.6078 59.45 16.2 64.756 17.507 9.3013 2.291-28.086-14.67-68.168-6.2107-6.863 1.4485-17.996 5.0509-22.426 11.371l-8.9143 8.4948c-0.32983 0.25232-0.66406 0.47705-0.99365 0.73438-3.4995 6.0149-4.9609 11.635-5.0974 16.977-2.7517 16.679 5.9519 30.494 14.936 44.24 38.443 34.706 44.386 60.205 35.064 76.908-0.24268 0.43481-0.49585 0.86377-0.75903 1.2869-0.86279 1.3867-1.8332 2.7095-2.9014 3.9685-0.36328 0.42847-0.73779 0.84924-1.1233 1.2628-20.763 22.281-72.968 23.176-90.617 4.2623-92.239-11.882-95.348 45.567-119.7 86.484l-135.17 329.22c-3.1978 77.584 22.278 116.93 66.958 130.68l-0.1729 0.5618-1.2629-3.1082c-96.49 27.24-75.951 113.34-88.072 157.46-92.538 21.604-240.57-3.0068-365.63-8.5068-4.1151-0.18091-4.8314 1.908-8.894 1.7708l-3.1499 7.8525 6.5582 295.79 276.64 2.2463c11.031-15.21 21.821-30.689 56.244-22.507l314.87 96.722h409.35l375.66-17.971c126.09-167.37 51.998-256.92-33.738-341.92-41.376-8.5266-79.355-10.203-114.74-6.739-1.5991-26.641-10.48-55.119-35.984-87.736 38.665-102.9 73.574-203.18 89.982-335.14 45.335 4.3216 103.98 359.77 215.91 526.33 4.7656 36.738-9.898 73.505-22.463 110.24l20.217 110.2c4.7913 20.854 48.378 29.943 50.629-2.2463l-12.355-101.21 17.712 128.47c17.025 28.398 47.398 23.175 53.393-1.6848l-21.643-124.54 26.438 135.77c30.661 31.027 45.826 14.202 54.517-8.1213l-31.449-131.02 31.19 125.66c24.105 14.457 37.319 6.1685 44.97-13.78-12.488-61.644-18.2-96.19-27.82-137.76 23.08 27.54 34.629 21.017 50.629 58.491 79.566 37.331 37.284-21.13 24.71-56.245l-109.08-121.47-53.998-276.64c-8.3638-43.587-20.724-87.175-35.51-130.76l11.923 29.548c70.172 50.914 95.01 17.277 121.43-13.478l31.492-6.7822c44.811 93.784 157.48-8.2616 128.21-85.447l-101.21-726.51-62.983-40.477 40.477-18.014c32.945-34.088 30.085-70.921 24.753-107.95l-107.95-24.753c81.799-14.695 167.14-24.076 232.8-62.984 27.73-46.522 68.855-124.63-73.092-150.68l-173.23 65.23c-11.293-37.28-12.664-74.533-44.412-114.74 8.8176-20.169 17.13-38.23 64.672-49.462l157.46-22.506c86.383 2.5148 54.286-85.232 80.955-128.21-39.202-0.41071-75.331-0.3114-96.722 2.2463l-38.608-26.064c26.306 9.3114 45.434 4.2664 63.361-3.1809 115.6-91.249 7.0984-141.5-30.368-173.18 34.709 88.189-97.994 126.53-141.69 146.23l97.845-80.997c50.858-121.21-55.831-81.446-60.737-71.969l-164.2 175.43 31.492-114.69c-13.227-56.528-37.688-77.71-69.161-76.894zm-117.54 1050.8l11.275 6.7389c-9.8096 12.934-18.849 23.58-31.492 45.013 5.1421 89.372 38.554 138.36 62.983 200.18l47.821 118.54c-13.487-32.022-26.646-64.052-38.835-96.074-49.852-31.348-64.458-69.377-170.94-89.94 5.1736-48.158-16.511-104.24 20.217-141.73-4.6428-20.388-11.726-43.241 6.7822-40.477 26.114 27.389 68.914 22.608 92.186-2.2463z"/>
  <path d="m98.34 196.38c146.23 31.585 68.007 164.23 75.547 284.69-89.948 29.134-58.987 17.271-77.933 44.533 32.719 50.248 64.913 122.32 80.318 52.485 4.137 4.652-5.8665-11.681 8.7737 11.11 6.116 9.5214-7.759 14.03-11.919 19.916-32.289 45.684 86.521 108.26 81.874 43.726 15.973-13.647 18.771-9.9276 11.426 7.1628-15.974 90.661 77.392 86.983 95.135 59.637 30.173-38.516 25.891-8.3071-1.2248 16.97-34.852 32.489 42.96 105.89 60.072 41.877 43.496-15.527 88.551 3.085 100.61 5.6437 10.122 2.1476-107.8-29.513-103.34 39.876-6.6502 71.987 30.154 69.505 56.801 31.618l-4.2891 17.989c-64.535 21.364-52.818 89.624-24.339 102.09-47.035 1.223-65.322 40.176-44.533 130.42 15.232 2.6711 34.802 15.463 38.171-9.5428-6.2471-24.013 11.555-39.007 20.676-57.257 87.038-20.979 39.116 76.283 45.328 104.18 37.671-17.02 54.549-48.891 78.728-75.547 0.088135-41.131-6.4836-78.932-52.485-97.018 25.844-56.992 24.937-113.98 23.857-170.98-79.839-123.38-197.02-144.43-300.6-205.96l-82.704-113.72"/>
  <path d="m116.63 131.17c226.24 33.878 103.67 234.01 147.91 353.08 108.11 125.16 194.82 104.83 354.67 286.28 29.312 13.967 62.486 4.0178 68.498 19.488 17.352 44.647 12.482 66.703 15.481 76.583 10.204 33.617-10.696-66.418-14.377-75.864-2.0945-5.3737 52.279-29.211 54.395-17.037 14.646 84.248 33.112 92.699 34.861 101.27 6.1821 30.274-37.648-84.743-35.795-100.84 3.221-4.8984 32.677-26.496 42.09-21.673 23.883 56.818 30.007 74.5 35.679 81.092 9.9468 11.561-14.95-24.262-34.077-82.205-5.2629-15.944 50.604-44.953 59.055-29.018 116.53 219.72 69.037 147.74 0.67725 0.10083-7.1211-15.38 23.486-41.43 33.746-39.699 17.806 3.0037 32.71-19.95 40.979-25.22 7.481-4.7675 86.911 101.83 94.392 129.4 6.2612 23.067 16.366-7.2167-95.106-133.76-5.0791-5.7655 2.0901-13.625 4.408-14.128 3.0977-0.67248 33.664-21.346 40.045-51.037 2.5598-11.911 104.02 7.6322 118.93 26.191 10.188 12.674-22.545-28.021-102.02-30.247-8.8394-0.24756-11.257 2.4344-21.029 4.344-5.3052 1.0369-5.2085-17.957-11.522-37.113-6.1191-18.566-17.542-38.655-33.117-49.853-9.773-7.0267 18.627 10.824 31.829 48.761 4.9568 14.244 7.2302 32.944 9.417 35.101 13.357 13.179-22.121 32.055-40.368 34.918-15.464 2.4268-19.568-77.843-32.797-136.51-5.3364-23.664 16.151 85.948 26.484 163.98 4.333 32.721-73.788 39.686-55.651 30.802 2.6052-1.2761-24.97-11.406-6.0374-48.24 10.804-21.019-52.228-136.88-78.761-126.6"/>
  <path d="m789.4 561.39c-11.097-16.386-54.37-32.18-80.405-37.766-15.06-4.928-25.993 1.0864-39.45 7.2371-263.87 122.5 42.177 384.77 139.74 153.79 12.554-14.398 7.7285-33.177-19.085-39.762-171.05 100.59-201.48-48.663-0.79541-83.499z"/>
  <path d="m790.99 574.91c22.187 23.839 16.144 44.498 20.676 64.414-65.166-3.4132-124.1 41.63-129.62 8.7476-35.047-43.391 107.95-86.471 108.95-73.161z"/>
  <path d="m525.38 1207.9c0 41.284-35.604 74.752-79.523 74.752s-79.523-33.467-79.523-74.752c0-41.284 35.604-74.752 79.523-74.752s79.523 33.467 79.523 74.752z"/>
  <path d="m207.29 1209.5c0 26.352-20.65 47.714-46.123 47.714s-46.124-21.362-46.124-47.714 20.65-47.714 46.124-47.714c25.473 0 46.123 21.362 46.123 47.714z"/>
  <path d="m277.27 1328.8c0 23.717-21.362 42.943-47.714 42.943s-47.714-19.226-47.714-42.943 21.362-42.943 47.714-42.943 47.714 19.226 47.714 42.943z"/>
  <path d="m404.5 1368.6c0 26.352-22.074 47.714-49.304 47.714s-49.304-21.362-49.304-47.714 22.074-47.714 49.304-47.714 49.304 21.362 49.304 47.714z"/>
  <path d="m522.2 1357.4c0 28.987-23.499 52.485-52.486 52.485s-52.485-23.498-52.485-52.485 23.498-52.485 52.485-52.485 52.486 23.498 52.486 52.485z"/>
  <path d="m623.99 1276.3c0 24.595-19.938 44.533-44.533 44.533s-44.533-19.938-44.533-44.533 19.938-44.533 44.533-44.533 44.533 19.938 44.533 44.533z"/>
  <path d="m671.7 1157c0 27.23-22.074 49.304-49.304 49.304s-49.304-22.074-49.304-49.304 22.074-49.304 49.304-49.304 49.304 22.074 49.304 49.304z"/>
  <path d="m916.63 1184.1c0 24.595-19.938 44.533-44.533 44.533s-44.533-19.938-44.533-44.533 19.938-44.533 44.533-44.533 44.533 19.938 44.533 44.533z"/>
  <path d="m1049.1 1215.9c0 29.865-24.211 54.076-54.076 54.076-29.866 0-54.076-24.211-54.076-54.076s24.211-54.076 54.076-54.076 54.076 24.211 54.076 54.076z"/>
  <path d="m1187 1204.7c0 34.257-24.923 62.028-55.666 62.028-30.744 0-55.666-27.771-55.666-62.028s24.923-62.028 55.666-62.028c30.744 0 55.666 27.771 55.666 62.028v-1.22e-4z"/>
  <path d="m125.02 91.298c78.311 32.003 88.854-37.977 26.605-58.734"/>
  <path d="m230.35 120.84c21.58-9.0803 52.904-7.5118 79.523-11.133l-53.28 3.9761c104.27 85.858 76.969 224.45 92.247 345.13 22.787 24.537 83.997 66.708 107.47 78.831 0.5769 0.29785-77.777 39.947-69.298 45.225"/>
  <path d="m410.87 294.99c-8.0342 46.511-8.9211 82.302 0 103.38 29.159 35.094 58.317 58.606 87.476 55.666 7.748-25.447 6.5139-50.895 1.5903-76.342-19.557-37.699-50.438-64.075-89.066-82.704l-2e-4 1e-4z"/>
  <path d="m324.98 166.16z"/>
  <path d="m449.04 169.34c-97.266 110.6 77.726 110.4 72.359 196.19-10.389 166.08 144.05 229.52 146.33 93.27"/>
  <path d="m472.89 191.61c2.8577 92.958 68.223 71.238 85.885 36.581"/>
  <path d="m557.19 385.65c7.0456 2.4551 19.403 27.126 28.57 28.928 13.955 2.7432 31.069-13.909 37.435-34.494-7.9656 32.61-1.2361 59.342 11.928 83.499-23.03-9.7222-46.576-18.672-77.933-15.905 1.1987-12.194 7.3816-24.387-3.1812-36.581"/>
  <path d="m450.63 533.56l3.1809 9.5428c-48.891 62.963 17.237 127.78 77.933 69.98 76.869-95.118 2.2805-107.18-46.124-133.6-20.342-16.297-51.228-53.681-79.523-85.885-13.306-82.14 17.003-164.69-82.704-217.89"/>
  <path d="m700.33 62.783c-37.615-8.9075-67.886-21.842-109.74-47.714-1.2307-23.469 1.5149-43.624 25.447-46.123 37.047 14.314 72.337 31.809 97.018 46.123"/>
  <path d="m1115.4-143.98c-35.31 12.517-149.23 119.36-230.62 206.76"/>
  <path d="m1121.8-108.99c-27.744 18.778-139.06 114.28-249.7 216.3"/>
  <path d="m1183.8-66.044c-43.847 81.608-200.89 136.1-308.55 201.99"/>
  <path d="m891.19 151.85c102.43-54.961 286.56-129.78 297.42-171.77"/>
  <path d="m1132.9 75.507c-74.752 35.52-100.98 25.539-230.62 104.97"/>
  <path d="m1228.4 100.95c-132.52 31.904-298.47 61.842-294.24 101.79"/>
  <path d="m1215.6 134.35c-47.675 40.071-240.61 57.274-275.15 89.066"/>
  <path d="m1023.2 530.38c-64.627-0.14966-72.833-44.41-62.028-90.656"/>
  <path d="m778.26 893.01c9.752 14.846 30.182 23.759 77.933 17.495l-44.533 264.02"/>
  <path d="m853.02 910.5c37.181-3.9183 27.651-26.636 38.171-38.171 24.044-1.4348 52.424-11.542 60.438 19.086l-34.99 550.3"/>
  <path d="m948.44 881.87c16.411-35.012 38.136-65.3 92.247-66.799 15.532 253.68 36.12 482.09 55.666 715.71"/>
  <path d="m902.32 921.63l-30.219 203.58"/>
  <path d="m988.2 888.23l6.3618 232.21"/>
  <path d="m999.34 1300.2c2.7515 59.701-8.2878 117.4-5.4993 176.28 36.523 114.89 55.18-125.08 50.032-139.69"/>
  <path d="m1070.9 778.49l25.447 337.18"/>
  <path d="m1125 1281.1l7.9524 195.63c96.46 76.042 31.56-121.53 41.352-192.45"/>
  <path d="m903.91 1230.2c-7.0242 32.87-8.3091 65.739 1.5906 98.609"/>
  <path d="m827.57 1259.6l108.15 268.79"/>
  <path d="m897.55 1293.8c-13.508 10.073-23.595 20.146-28.628 30.219-7.8555-22.364-11.482-48.956-27.038-63.618"/>
  <path d="m26.769 290.62c29.688 38.705 68.768 39.84 103.78 57.257-3.332 22.472 5.2229 33.461-24.419 65.626 27.504 10.398 46.663 12.54 68.602 11.808-2.7102-19.32 29.94-73.67-46.672-78.724"/>
  <path d="m78.574 1487c-9.5627-64.215-10.365-99.05-42.736-103.47-32.069-0.093994-57.14 48.86-65.228 114.71 56.206 29.948 87.623 18.58 107.96-11.246z"/>
  <path d="m143.8 1487c-54.353-481.88-280.88-63.608-265.35 55.846 24.657 62.495 131.14 38.25 154.52 19.312"/>
  <path d="m71.827 1489.2c111.06 17.986 213.77-30.814 319.4-56.188 16.594-3.2732 22.477-0.12036 32.294 0.67358 38.344 13.81 79.849 17.342 112.77 48.767 4.5405 30.994-57.633 24.832-80.686 25.788-6.343 0.26282-0.022217-2.6143-4.7854 1.2036 35.808 8.2451 84.701 17.028 105.21 32.177 46.741 34.531 30.93 78.55-18.611 56.669l-101.22-32.614 119.21 38.237c47.244 63.46-8.5674 61.816-33.739 58.481l-119.21-51.733 89.97 40.486c13.862 31.652 30.224 60.797-49.484 53.982l-58.481-38.238 48.359 32.614c29.77 32.524-0.38159 52.099-41.611 46.11l-110.21-76.475c-160.36 49.904-334.24 32.218-506.08 24.742"/>
  <path d="m231.52 1478c-0.80859 79.621 4.5576 143.8 15.745 193.44"/>
  <path d="m177.54 1487c-8.5037 81.9 2.4141 151.68 11.246 204.68"/>
  <path d="m80.824 1491.5c10 88.354 8.4758 147.9 6.7476 206.93"/>
  <path d="m38.088 1513.9l-11.246 184.44"/>
  <path d="m87.571 1566.2c22.026-17.71 51.798-21.491 85.472-27.554"/>
  <path d="m88.696 1630.9c14.1 2.0586 15.647 2.5916 30.164 2.9807 16.205 0.43433 39.902-2.1133 58.681-11.978"/>
  <path d="m232.97 1528.9c45.735-20.31 184.49-31.382 230.22-21.721"/>
  <path d="m776.41 1737.7c55.224-16.031 143.25-19.97 198.5-62.979"/>
  <path d="m798.34 1809.7c67.188-9.5349 126.1-39.759 187.81-62.979"/>
  <path d="m835.45 1896.3c67.453-16.43 117.8-39.699 170.94-61.855"/>
  <path d="m866.94 1949.2c52.361-18.617 115.55-31.821 151.82-58.48"/>
  <path d="m868.06 1705.1c-97.324-274.63-191.33-599.46-335.14-170.94"/>
  <path d="m-226.59 1703c105.54 13.743 296.96-30.242 301.82 12.881-98.69 42.148-67.024 97.158-90.175 99.894-38.454 4.5452-145.72 20.365-160.19 37.446l-22.657 26.742c18.32-13.848 12.596-17.972 32.002-27.124l23.715-11.045c67.868-31.608 227.94 58.684 288.13 110.8"/>
  <path d="m168.54 1867.1c-26.834 2.8828-95.216-46.419-87.721-56.231 5.2485 4.5781 11.23 7.7354 15.054 12.45 111.35 137.27 82.326-167.8-41.535-97.191-51.89 37.301-66.937 69.306-54.493 127.48"/>
  <path d="m143.8 2040.3c36.6-97.527 22.458-234.47 20.243-348.63"/>
  <path d="m231.52 1995.3c21.508-60.09 2.4819-140.45 2.5762-211.24l85.319-2.1863c2.9412 82.077 5.8818 141.41 8.8228 206.68"/>
  <path d="m388.97 1738.9c-41.27 66.157-13.076 163.74 15.745 247.42-246.4 108.88-483.36 12.012-717.51 26.991-54.237 32.053-157.52 25.793-101.22 130.46"/>
  <path d="m622.89 2065c-52.65-140.69-162.63-60.632-190.23-89.202-11.185-11.576-21.729-57.369 1.2959-101.98-40.218-20.075-28.421-69.874-29.24-112.46 52.483-3.5798 104.96-26.622 157.45 2.2493"/>
  <path d="m114.56 2060.5l15.745 157.45"/>
  <path d="m179.79 2062.8l13.495 155.2"/>
  <path d="m294.5 2033.5l35.988 184.44"/>
  <path d="m352.98 2022.3l38.237 128.21 256.42-2.2495c138.07-18.794 129.75-207.22-38.237-233.92-46.122 10.423-92.001 22.306-143.95-2.2493"/>
  <path d="m427.21 1869.3c180.36 0.40942 101.17-10.466 150.7-15.745"/>
  <path d="m197.78 2074c16.585-1.9675 30.86-3.4727 76.475-11.246"/>
  <path d="m195.54 2150.5c7.9473 3.314 27.096 3.2676 94.468-11.246"/>
  <path d="m206.78 2197.7l94.469-11.246"/>
  <path d="m-586.08 1849.1v299.15"/>
  <path d="m-483.74 1860.3l-6.7478 287.9"/>
  <path d="m386.72 1307c-161.26-40.077-69.296-100.31-103.75-161.54-36.587-65.033-74.911-7.929-138.19-18.638-17.121-2.8975-38.35 38.306-76.002 8.0352"/>
  <path d="m110.06 834.67c98.218 179.46 105.85 82.472 111.34 196.81"/>
  <path d="m681.25 134.35l46.123-167"/>
  <path d="m980.25 234.55c-105.46-20.172-136.56-86.124-85.09-199.6"/>
  <path d="m-308.02 1848.1c-6.5332 58.924-17.152 116.86 50.895 155.07"/>
  <path d="m-15.575 1756.7c-61.902-16.987-181.15-46.374-217.09-7.4717-48.918 52.954-58.124 162.28-5.4513 198.35 30.965 21.207 256.76 70.045 340.01 50.814"/>
  <path d="m-685.14 1903.1l67.478-13.496"/>
  <path d="m-685.14 1976.1l67.478-8.9971"/>
  <path d="m-681.67 2032.8l76.475-4.4985"/>
  <path d="m-681.67 2092.7l62.979-4.4988"/>
  <path d="m401.32 1984.8l38.171-3.1809"/>
  <path d="m786.22 1788.4l209.94 38.171"/>
  <g fill="none">
   <path d="m156.39 748.27c-7.5862 33.214 15.369 44.612 36.581 57.257 33.711 3.8038 63.832 0.4281 89.066-12.724-10.756-21.405-19.08-43.568-46.124-58.847-33.331-5.4636-63.027-5.4746-79.523 14.314h2.44e-4z"/>
   <path d="m857.38-155.41c-20.175 0.52359-43.237 10.079-68.038 25.142l-60.737 98.968c-25.314-36.823-55.31-66.961-119.23-97.845-73.802 31.28-98.253 74.034-118.06 133.83 18.38 32.485-15.877 58.754 122.6 108 5.3909-1.0947 22.757 8.1912 37.108 1.1232l34.861 25.833c9.677 43.486 17.27 86.974 47.216 130.46 66.108 37.039 129.45 69.306 224.94 103.46v24.753c-58.242-46.519-63.097-19.473-104.58-15.724l-34.861 29.246c-16.636 25.819-34.65 58.781-48.383 93.309-15.492-24.245-39.842-39.607-64.107-55.078-44.499-97.503-100.9-199.08-166.44-314.92-47.062-19.296-70.934-0.45648-91.062 37.108-70.827-2.9357-46.042-56.222-66.353-91.063l-22.506-22.506c-0.98144-17.233 13.431-25.235 26.999-33.738-6.9429 18.369-12.14 36.752 4.4927 55.121 46.294 10.567 50.396-22.237 53.998-48.382-132.21-119.32-91.455-16.238-130.46-15.724l-22.506-29.245 33.738-29.246c-14.618-20.496-32.642-36.496-56.245-45.013-32.897 15.556-44.969 45.037-60.737 72.012-127.9-39.094-124.6 83.158-80.954 110.2l-6.6096 40.736c-20.773 2.5056-40.827 7.8246-58.621 22.247-10.679 11.433-11.003 20.801-6.739 29.246 19.749 24.39 30.594 8.7717 44.97 8.9853-12.143 0.74628 4.3928 13.922-6.6526 16.459-64.574 14.829-70.855 86.461-81.084 156.72 21.124 51.602 27.779 117.73 67.52 150.72 8.6108 40.865 29.661 77.557 56.201 112.45l7.8191 6.6958c-31.023 31.873-69.012 56.292-82.596 99.443-14.407 45.767-29.06 78.304-53.998 128.08-3.3335 6.61-2.2009 10.105 0.51831 12.355 4.3874 2.5945 36.926 26.765 54.374 23.493 3.1965-0.59936 1.3328-0.51941 4.1716 0.4928 65.316 23.286 77.906-24.387 43.03-63.893-11.542-13.074 61.015 68.3-16.696 70.82 2.7473 2.5582-6.0278-2.0051-21.487-5.5466-3.1687-0.72595-6.6179-1.4089-10.306-1.9789-18.039-2.7874-31.922-7.0603-34.188-12.565-14.749 22.24-16.426 62.417-13.552 87.279 0.36792-1.847-1.0706 3.5302 3.0754 4.2637 15.097-7.8746 26.747-10.899 38.166-11.924 44.253-1.6078 59.45 16.2 64.756 17.507 9.3013 2.291-28.086-14.67-68.168-6.2107-6.863 1.4485-17.996 5.0509-22.426 11.371l-8.9143 8.4948c-0.32983 0.25232-0.66406 0.47705-0.99365 0.73438-3.4995 6.0149-4.9609 11.635-5.0974 16.977-2.7517 16.679 5.9519 30.494 14.936 44.24 38.443 34.706 44.386 60.205 35.064 76.908-0.24268 0.43481-0.49585 0.86377-0.75903 1.2869-0.86279 1.3867-1.8332 2.7095-2.9014 3.9685-0.36328 0.42847-0.73779 0.84924-1.1233 1.2628-20.763 22.281-72.968 23.176-90.617 4.2623-92.239-11.882-95.348 45.567-119.7 86.484l-135.17 329.22c-3.1978 77.584 22.278 116.93 66.958 130.68l-0.1729 0.5618-1.2629-3.1082c-96.49 27.24-75.951 113.34-88.072 157.46-92.538 21.604-240.57-3.0068-365.63-8.5068-4.1151-0.18091-4.8314 1.908-8.894 1.7708l-3.1499 7.8525 6.5582 295.79 276.64 2.2463c11.031-15.21 21.821-30.689 56.244-22.507l314.87 96.722h409.35l375.66-17.971c126.09-167.37 51.998-256.92-33.738-341.92-41.376-8.5266-79.355-10.203-114.74-6.739-1.5991-26.641-10.48-55.119-35.984-87.736 38.665-102.9 73.574-203.18 89.982-335.14 45.335 4.3216 103.98 359.77 215.91 526.33 4.7656 36.738-9.898 73.505-22.463 110.24l20.217 110.2c4.7913 20.854 48.378 29.943 50.629-2.2463l-12.355-101.21 17.712 128.47c17.025 28.398 47.398 23.175 53.393-1.6848l-21.643-124.54 26.438 135.77c30.661 31.027 45.826 14.202 54.517-8.1213l-31.449-131.02 31.19 125.66c24.105 14.457 37.319 6.1685 44.97-13.78-12.488-61.644-18.2-96.19-27.82-137.76 23.08 27.54 34.629 21.017 50.629 58.491 79.566 37.331 37.284-21.13 24.71-56.245l-109.08-121.47-53.998-276.64c-8.3638-43.587-20.724-87.175-35.51-130.76l11.923 29.548c70.172 50.914 95.01 17.277 121.43-13.478l31.492-6.7822c44.811 93.784 157.48-8.2616 128.21-85.447l-101.21-726.51-62.983-40.477 40.477-18.014c32.945-34.088 30.085-70.921 24.753-107.95l-107.95-24.753c81.799-14.695 167.14-24.076 232.8-62.984 27.73-46.522 68.855-124.63-73.092-150.68l-173.23 65.23c-11.293-37.28-12.664-74.533-44.412-114.74 8.8176-20.169 17.13-38.23 64.672-49.462l157.46-22.506c86.383 2.5148 54.286-85.232 80.955-128.21-39.202-0.41071-75.331-0.3114-96.722 2.2463l-38.608-26.064c26.306 9.3114 45.434 4.2664 63.361-3.1809 115.6-91.249 7.0984-141.5-30.368-173.18 34.709 88.189-97.994 126.53-141.69 146.23l97.845-80.997c50.858-121.21-55.831-81.446-60.737-71.969l-164.2 175.43 31.492-114.69c-13.227-56.528-37.688-77.71-69.161-76.894zm-117.54 1050.8l11.275 6.7389c-9.8096 12.934-18.849 23.58-31.492 45.013 5.1421 89.372 38.554 138.36 62.983 200.18l47.821 118.54c-13.487-32.022-26.646-64.052-38.835-96.074-49.852-31.348-64.458-69.377-170.94-89.94 5.1736-48.158-16.511-104.24 20.217-141.73-4.6428-20.388-11.726-43.241 6.7822-40.477 26.114 27.389 68.914 22.608 92.186-2.2463z"/>
   <path d="m98.34 196.38c146.23 31.585 68.007 164.23 75.547 284.69-89.948 29.134-58.987 17.271-77.933 44.533 32.719 50.248 64.913 122.32 80.318 52.485 4.137 4.652-5.8665-11.681 8.7737 11.11 6.116 9.5214-7.759 14.03-11.919 19.916-32.289 45.684 86.521 108.26 81.874 43.726 15.973-13.647 18.771-9.9276 11.426 7.1628-15.974 90.661 77.392 86.983 95.135 59.637 30.173-38.516 25.891-8.3071-1.2248 16.97-34.852 32.489 42.96 105.89 60.072 41.877 43.496-15.527 88.551 3.085 100.61 5.6437 10.122 2.1476-107.8-29.513-103.34 39.876-6.6502 71.987 30.154 69.505 56.801 31.618l-4.2891 17.989c-64.535 21.364-52.818 89.624-24.339 102.09-47.035 1.223-65.322 40.176-44.533 130.42 15.232 2.6711 34.802 15.463 38.171-9.5428-6.2471-24.013 11.555-39.007 20.676-57.257 87.038-20.979 39.116 76.283 45.328 104.18 37.671-17.02 54.549-48.891 78.728-75.547 0.088135-41.131-6.4836-78.932-52.485-97.018 25.844-56.992 24.937-113.98 23.857-170.98-79.839-123.38-197.02-144.43-300.6-205.96l-82.704-113.72"/>
   <path d="m116.63 131.17c226.24 33.878 103.67 234.01 147.91 353.08 108.11 125.16 194.82 104.83 354.67 286.28 29.312 13.967 62.486 4.0178 68.498 19.488 17.352 44.647 12.482 66.703 15.481 76.583 10.204 33.617-10.696-66.418-14.377-75.864-2.0945-5.3737 52.279-29.211 54.395-17.037 14.646 84.248 33.112 92.699 34.861 101.27 6.1821 30.274-37.648-84.743-35.795-100.84 3.221-4.8984 32.677-26.496 42.09-21.673 23.883 56.818 30.007 74.5 35.679 81.092 9.9468 11.561-14.95-24.262-34.077-82.205-5.2629-15.944 50.604-44.953 59.055-29.018 116.53 219.72 69.037 147.74 0.67725 0.10083-7.1211-15.38 23.486-41.43 33.746-39.699 17.806 3.0037 32.71-19.95 40.979-25.22 7.481-4.7675 86.911 101.83 94.392 129.4 6.2612 23.067 16.366-7.2167-95.106-133.76-5.0791-5.7655 2.0901-13.625 4.408-14.128 3.0977-0.67248 33.664-21.346 40.045-51.037 2.5598-11.911 104.02 7.6322 118.93 26.191 10.188 12.674-22.545-28.021-102.02-30.247-8.8394-0.24756-11.257 2.4344-21.029 4.344-5.3052 1.0369-5.2085-17.957-11.522-37.113-6.1191-18.566-17.542-38.655-33.117-49.853-9.773-7.0267 18.627 10.824 31.829 48.761 4.9568 14.244 7.2302 32.944 9.417 35.101 13.357 13.179-22.121 32.055-40.368 34.918-15.464 2.4268-19.568-77.843-32.797-136.51-5.3364-23.664 16.151 85.948 26.484 163.98 4.333 32.721-73.788 39.686-55.651 30.802 2.6052-1.2761-24.97-11.406-6.0374-48.24 10.804-21.019-52.228-136.88-78.761-126.6"/>
   <path d="m789.4 561.39c-11.097-16.386-54.37-32.18-80.405-37.766-15.06-4.928-25.993 1.0864-39.45 7.2371-263.87 122.5 42.177 384.77 139.74 153.79 12.554-14.398 7.7285-33.177-19.085-39.762-171.05 100.59-201.48-48.663-0.79541-83.499z"/>
   <path d="m790.99 574.91c22.187 23.839 16.144 44.498 20.676 64.414-65.166-3.4132-124.1 41.63-129.62 8.7476-35.047-43.391 107.95-86.471 108.95-73.161z"/>
   <path d="m525.38 1207.9c0 41.284-35.604 74.752-79.523 74.752s-79.523-33.467-79.523-74.752c0-41.284 35.604-74.752 79.523-74.752s79.523 33.467 79.523 74.752z"/>
   <path d="m207.29 1209.5c0 26.352-20.65 47.714-46.123 47.714s-46.124-21.362-46.124-47.714 20.65-47.714 46.124-47.714c25.473 0 46.123 21.362 46.123 47.714z"/>
   <path d="m277.27 1328.8c0 23.717-21.362 42.943-47.714 42.943s-47.714-19.226-47.714-42.943 21.362-42.943 47.714-42.943 47.714 19.226 47.714 42.943z"/>
   <path d="m404.5 1368.6c0 26.352-22.074 47.714-49.304 47.714s-49.304-21.362-49.304-47.714 22.074-47.714 49.304-47.714 49.304 21.362 49.304 47.714z"/>
   <path d="m522.2 1357.4c0 28.987-23.499 52.485-52.486 52.485s-52.485-23.498-52.485-52.485 23.498-52.485 52.485-52.485 52.486 23.498 52.486 52.485z"/>
   <path d="m623.99 1276.3c0 24.595-19.938 44.533-44.533 44.533s-44.533-19.938-44.533-44.533 19.938-44.533 44.533-44.533 44.533 19.938 44.533 44.533z"/>
   <path d="m671.7 1157c0 27.23-22.074 49.304-49.304 49.304s-49.304-22.074-49.304-49.304 22.074-49.304 49.304-49.304 49.304 22.074 49.304 49.304z"/>
   <path d="m916.63 1184.1c0 24.595-19.938 44.533-44.533 44.533s-44.533-19.938-44.533-44.533 19.938-44.533 44.533-44.533 44.533 19.938 44.533 44.533z"/>
   <path d="m1049.1 1215.9c0 29.865-24.211 54.076-54.076 54.076-29.866 0-54.076-24.211-54.076-54.076s24.211-54.076 54.076-54.076 54.076 24.211 54.076 54.076z"/>
   <path d="m1187 1204.7c0 34.257-24.923 62.028-55.666 62.028-30.744 0-55.666-27.771-55.666-62.028s24.923-62.028 55.666-62.028c30.744 0 55.666 27.771 55.666 62.028v-1.22e-4z"/>
   <path d="m125.02 91.298c78.311 32.003 88.854-37.977 26.605-58.734"/>
   <path d="m230.35 120.84c21.58-9.0803 52.904-7.5118 79.523-11.133l-53.28 3.9761c104.27 85.858 76.969 224.45 92.247 345.13 22.787 24.537 83.997 66.708 107.47 78.831 0.5769 0.29785-77.777 39.947-69.298 45.225"/>
   <path d="m410.87 294.99c-8.0342 46.511-8.9211 82.302 0 103.38 29.159 35.094 58.317 58.606 87.476 55.666 7.748-25.447 6.5139-50.895 1.5903-76.342-19.557-37.699-50.438-64.075-89.066-82.704l-2e-4 1e-4z"/>
   <path d="m324.98 166.16z"/>
   <path d="m449.04 169.34c-97.266 110.6 77.726 110.4 72.359 196.19-10.389 166.08 144.05 229.52 146.33 93.27"/>
   <path d="m472.89 191.61c2.8577 92.958 68.223 71.238 85.885 36.581"/>
   <path d="m557.19 385.65c7.0456 2.4551 19.403 27.126 28.57 28.928 13.955 2.7432 31.069-13.909 37.435-34.494-7.9656 32.61-1.2361 59.342 11.928 83.499-23.03-9.7222-46.576-18.672-77.933-15.905 1.1987-12.194 7.3816-24.387-3.1812-36.581"/>
   <path d="m450.63 533.56l3.1809 9.5428c-48.891 62.963 17.237 127.78 77.933 69.98 76.869-95.118 2.2805-107.18-46.124-133.6-20.342-16.297-51.228-53.681-79.523-85.885-13.306-82.14 17.003-164.69-82.704-217.89"/>
   <path d="m700.33 62.783c-37.615-8.9075-67.886-21.842-109.74-47.714-1.2307-23.469 1.5149-43.624 25.447-46.123 37.047 14.314 72.337 31.809 97.018 46.123"/>
   <path d="m1115.4-143.98c-35.31 12.517-149.23 119.36-230.62 206.76"/>
   <path d="m1121.8-108.99c-27.744 18.778-139.06 114.28-249.7 216.3"/>
   <path d="m1183.8-66.044c-43.847 81.608-200.89 136.1-308.55 201.99"/>
   <path d="m891.19 151.85c102.43-54.961 286.56-129.78 297.42-171.77"/>
   <path d="m1132.9 75.507c-74.752 35.52-100.98 25.539-230.62 104.97"/>
   <path d="m1228.4 100.95c-132.52 31.904-298.47 61.842-294.24 101.79"/>
   <path d="m1215.6 134.35c-47.675 40.071-240.61 57.274-275.15 89.066"/>
   <path d="m1023.2 530.38c-64.627-0.14966-72.833-44.41-62.028-90.656"/>
   <path d="m778.26 893.01c9.752 14.846 30.182 23.759 77.933 17.495l-44.533 264.02"/>
   <path d="m853.02 910.5c37.181-3.9183 27.651-26.636 38.171-38.171 24.044-1.4348 52.424-11.542 60.438 19.086l-34.99 550.3"/>
   <path d="m948.44 881.87c16.411-35.012 38.136-65.3 92.247-66.799 15.532 253.68 36.12 482.09 55.666 715.71"/>
   <path d="m902.32 921.63l-30.219 203.58"/>
   <path d="m988.2 888.23l6.3618 232.21"/>
   <path d="m999.34 1300.2c2.7515 59.701-8.2878 117.4-5.4993 176.28 36.523 114.89 55.18-125.08 50.032-139.69"/>
   <path d="m1070.9 778.49l25.447 337.18"/>
   <path d="m1125 1281.1l7.9524 195.63c96.46 76.042 31.56-121.53 41.352-192.45"/>
   <path d="m903.91 1230.2c-7.0242 32.87-8.3091 65.739 1.5906 98.609"/>
   <path d="m827.57 1259.6l108.15 268.79"/>
   <path d="m897.55 1293.8c-13.508 10.073-23.595 20.146-28.628 30.219-7.8555-22.364-11.482-48.956-27.038-63.618"/>
   <path d="m26.769 290.62c29.688 38.705 68.768 39.84 103.78 57.257-3.332 22.472 5.2229 33.461-24.419 65.626 27.504 10.398 46.663 12.54 68.602 11.808-2.7102-19.32 29.94-73.67-46.672-78.724"/>
   <path d="m78.574 1487c-9.5627-64.215-10.365-99.05-42.736-103.47-32.069-0.093994-57.14 48.86-65.228 114.71 56.206 29.948 87.623 18.58 107.96-11.246z"/>
   <path d="m143.8 1487c-54.353-481.88-280.88-63.608-265.35 55.846 24.657 62.495 131.14 38.25 154.52 19.312"/>
   <path d="m71.827 1489.2c111.06 17.986 213.77-30.814 319.4-56.188 16.594-3.2732 22.477-0.12036 32.294 0.67358 38.344 13.81 79.849 17.342 112.77 48.767 4.5405 30.994-57.633 24.832-80.686 25.788-6.343 0.26282-0.022217-2.6143-4.7854 1.2036 35.808 8.2451 84.701 17.028 105.21 32.177 46.741 34.531 30.93 78.55-18.611 56.669l-101.22-32.614 119.21 38.237c47.244 63.46-8.5674 61.816-33.739 58.481l-119.21-51.733 89.97 40.486c13.862 31.652 30.224 60.797-49.484 53.982l-58.481-38.238 48.359 32.614c29.77 32.524-0.38159 52.099-41.611 46.11l-110.21-76.475c-160.36 49.904-334.24 32.218-506.08 24.742"/>
   <path d="m231.52 1478c-0.80859 79.621 4.5576 143.8 15.745 193.44"/>
   <path d="m177.54 1487c-8.5037 81.9 2.4141 151.68 11.246 204.68"/>
   <path d="m80.824 1491.5c10 88.354 8.4758 147.9 6.7476 206.93"/>
   <path d="m38.088 1513.9l-11.246 184.44"/>
   <path d="m87.571 1566.2c22.026-17.71 51.798-21.491 85.472-27.554"/>
   <path d="m88.696 1630.9c14.1 2.0586 15.647 2.5916 30.164 2.9807 16.205 0.43433 39.902-2.1133 58.681-11.978"/>
   <path d="m232.97 1528.9c45.735-20.31 184.49-31.382 230.22-21.721"/>
   <path d="m776.41 1737.7c55.224-16.031 143.25-19.97 198.5-62.979"/>
   <path d="m798.34 1809.7c67.188-9.5349 126.1-39.759 187.81-62.979"/>
   <path d="m835.45 1896.3c67.453-16.43 117.8-39.699 170.94-61.855"/>
   <path d="m866.94 1949.2c52.361-18.617 115.55-31.821 151.82-58.48"/>
   <path d="m868.06 1705.1c-97.324-274.63-191.33-599.46-335.14-170.94"/>
   <path d="m-226.59 1703c105.54 13.743 296.96-30.242 301.82 12.881-98.69 42.148-67.024 97.158-90.175 99.894-38.454 4.5452-145.72 20.365-160.19 37.446l-22.657 26.742c18.32-13.848 12.596-17.972 32.002-27.124l23.715-11.045c67.868-31.608 227.94 58.684 288.13 110.8"/>
   <path d="m168.54 1867.1c-26.834 2.8828-95.216-46.419-87.721-56.231 5.2485 4.5781 11.23 7.7354 15.054 12.45 111.35 137.27 82.326-167.8-41.535-97.191-51.89 37.301-66.937 69.306-54.493 127.48"/>
   <path d="m143.8 2040.3c36.6-97.527 22.458-234.47 20.243-348.63"/>
   <path d="m231.52 1995.3c21.508-60.09 2.4819-140.45 2.5762-211.24l85.319-2.1863c2.9412 82.077 5.8818 141.41 8.8228 206.68"/>
   <path d="m388.97 1738.9c-41.27 66.157-13.076 163.74 15.745 247.42-246.4 108.88-483.36 12.012-717.51 26.991-54.237 32.053-157.52 25.793-101.22 130.46"/>
   <path d="m622.89 2065c-52.65-140.69-162.63-60.632-190.23-89.202-11.185-11.576-21.729-57.369 1.2959-101.98-40.218-20.075-28.421-69.874-29.24-112.46 52.483-3.5798 104.96-26.622 157.45 2.2493"/>
   <path d="m114.56 2060.5l15.745 157.45"/>
   <path d="m179.79 2062.8l13.495 155.2"/>
   <path d="m294.5 2033.5l35.988 184.44"/>
   <path d="m352.98 2022.3l38.237 128.21 256.42-2.2495c138.07-18.794 129.75-207.22-38.237-233.92-46.122 10.423-92.001 22.306-143.95-2.2493"/>
   <path d="m427.21 1869.3c180.36 0.40942 101.17-10.466 150.7-15.745"/>
   <path d="m197.78 2074c16.585-1.9675 30.86-3.4727 76.475-11.246"/>
   <path d="m195.54 2150.5c7.9473 3.314 27.096 3.2676 94.468-11.246"/>
   <path d="m206.78 2197.7l94.469-11.246"/>
   <path d="m-586.08 1849.1v299.15"/>
   <path d="m-483.74 1860.3l-6.7478 287.9"/>
   <path d="m386.72 1307c-161.26-40.077-69.296-100.31-103.75-161.54-36.587-65.033-74.911-7.929-138.19-18.638-17.121-2.8975-38.35 38.306-76.002 8.0352"/>
   <path d="m110.06 834.67c98.218 179.46 105.85 82.472 111.34 196.81"/>
   <path d="m681.25 134.35l46.123-167"/>
   <path d="m980.25 234.55c-105.46-20.172-136.56-86.124-85.09-199.6"/>
   <path d="m-308.02 1848.1c-6.5332 58.924-17.152 116.86 50.895 155.07"/>
   <path d="m-15.575 1756.7c-61.902-16.987-181.15-46.374-217.09-7.4717-48.918 52.954-58.124 162.28-5.4513 198.35 30.965 21.207 256.76 70.045 340.01 50.814"/>
   <path d="m-685.14 1903.1l67.478-13.496"/>
   <path d="m-685.14 1976.1l67.478-8.9971"/>
   <path d="m-681.67 2032.8l76.475-4.4985"/>
   <path d="m-681.67 2092.7l62.979-4.4988"/>
   <path d="m401.32 1984.8l38.171-3.1809"/>
   <path d="m786.22 1788.4l209.94 38.171"/>
  </g>
  <g fill="none">
   <path d="m156.39 748.27c-7.5862 33.214 15.369 44.612 36.581 57.257 33.711 3.8038 63.832 0.4281 89.066-12.724-10.756-21.405-19.08-43.568-46.124-58.847-33.331-5.4636-63.027-5.4746-79.523 14.314h2.44e-4z"/>
   <path d="m857.38-155.41c-20.175 0.52359-43.237 10.079-68.038 25.142l-60.737 98.968c-25.314-36.823-55.31-66.961-119.23-97.845-73.802 31.28-98.253 74.034-118.06 133.83 18.38 32.485-15.877 58.754 122.6 108 5.3909-1.0947 22.757 8.1912 37.108 1.1232l34.861 25.833c9.677 43.486 17.27 86.974 47.216 130.46 66.108 37.039 129.45 69.306 224.94 103.46v24.753c-58.242-46.519-63.097-19.473-104.58-15.724l-34.861 29.246c-16.636 25.819-34.65 58.781-48.383 93.309-15.492-24.245-39.842-39.607-64.107-55.078-44.499-97.503-100.9-199.08-166.44-314.92-47.062-19.296-70.934-0.45648-91.062 37.108-70.827-2.9357-46.042-56.222-66.353-91.063l-22.506-22.506c-0.98144-17.233 13.431-25.235 26.999-33.738-6.9429 18.369-12.14 36.752 4.4927 55.121 46.294 10.567 50.396-22.237 53.998-48.382-132.21-119.32-91.455-16.238-130.46-15.724l-22.506-29.245 33.738-29.246c-14.618-20.496-32.642-36.496-56.245-45.013-32.897 15.556-44.969 45.037-60.737 72.012-127.9-39.094-124.6 83.158-80.954 110.2l-6.6096 40.736c-20.773 2.5056-40.827 7.8246-58.621 22.247-10.679 11.433-11.003 20.801-6.739 29.246 19.749 24.39 30.594 8.7717 44.97 8.9853-12.143 0.74628 4.3928 13.922-6.6526 16.459-64.574 14.829-70.855 86.461-81.084 156.72 21.124 51.602 27.779 117.73 67.52 150.72 8.6108 40.865 29.661 77.557 56.201 112.45l7.8191 6.6958c-31.023 31.873-69.012 56.292-82.596 99.443-14.407 45.767-29.06 78.304-53.998 128.08-3.3335 6.61-2.2009 10.105 0.51831 12.355 4.3874 2.5945 36.926 26.765 54.374 23.493 3.1965-0.59936 1.3328-0.51941 4.1716 0.4928 65.316 23.286 77.906-24.387 43.03-63.893-11.542-13.074 61.015 68.3-16.696 70.82 2.7473 2.5582-6.0278-2.0051-21.487-5.5466-3.1687-0.72595-6.6179-1.4089-10.306-1.9789-18.039-2.7874-31.922-7.0603-34.188-12.565-14.749 22.24-16.426 62.417-13.552 87.279 0.36792-1.847-1.0706 3.5302 3.0754 4.2637 15.097-7.8746 26.747-10.899 38.166-11.924 44.253-1.6078 59.45 16.2 64.756 17.507 9.3013 2.291-28.086-14.67-68.168-6.2107-6.863 1.4485-17.996 5.0509-22.426 11.371l-8.9143 8.4948c-0.32983 0.25232-0.66406 0.47705-0.99365 0.73438-3.4995 6.0149-4.9609 11.635-5.0974 16.977-2.7517 16.679 5.9519 30.494 14.936 44.24 38.443 34.706 44.386 60.205 35.064 76.908-0.24268 0.43481-0.49585 0.86377-0.75903 1.2869-0.86279 1.3867-1.8332 2.7095-2.9014 3.9685-0.36328 0.42847-0.73779 0.84924-1.1233 1.2628-20.763 22.281-72.968 23.176-90.617 4.2623-92.239-11.882-95.348 45.567-119.7 86.484l-135.17 329.22c-3.1978 77.584 22.278 116.93 66.958 130.68l-0.1729 0.5618-1.2629-3.1082c-96.49 27.24-75.951 113.34-88.072 157.46-92.538 21.604-240.57-3.0068-365.63-8.5068-4.1151-0.18091-4.8314 1.908-8.894 1.7708l-3.1499 7.8525 6.5582 295.79 276.64 2.2463c11.031-15.21 21.821-30.689 56.244-22.507l314.87 96.722h409.35l375.66-17.971c126.09-167.37 51.998-256.92-33.738-341.92-41.376-8.5266-79.355-10.203-114.74-6.739-1.5991-26.641-10.48-55.119-35.984-87.736 38.665-102.9 73.574-203.18 89.982-335.14 45.335 4.3216 103.98 359.77 215.91 526.33 4.7656 36.738-9.898 73.505-22.463 110.24l20.217 110.2c4.7913 20.854 48.378 29.943 50.629-2.2463l-12.355-101.21 17.712 128.47c17.025 28.398 47.398 23.175 53.393-1.6848l-21.643-124.54 26.438 135.77c30.661 31.027 45.826 14.202 54.517-8.1213l-31.449-131.02 31.19 125.66c24.105 14.457 37.319 6.1685 44.97-13.78-12.488-61.644-18.2-96.19-27.82-137.76 23.08 27.54 34.629 21.017 50.629 58.491 79.566 37.331 37.284-21.13 24.71-56.245l-109.08-121.47-53.998-276.64c-8.3638-43.587-20.724-87.175-35.51-130.76l11.923 29.548c70.172 50.914 95.01 17.277 121.43-13.478l31.492-6.7822c44.811 93.784 157.48-8.2616 128.21-85.447l-101.21-726.51-62.983-40.477 40.477-18.014c32.945-34.088 30.085-70.921 24.753-107.95l-107.95-24.753c81.799-14.695 167.14-24.076 232.8-62.984 27.73-46.522 68.855-124.63-73.092-150.68l-173.23 65.23c-11.293-37.28-12.664-74.533-44.412-114.74 8.8176-20.169 17.13-38.23 64.672-49.462l157.46-22.506c86.383 2.5148 54.286-85.232 80.955-128.21-39.202-0.41071-75.331-0.3114-96.722 2.2463l-38.608-26.064c26.306 9.3114 45.434 4.2664 63.361-3.1809 115.6-91.249 7.0984-141.5-30.368-173.18 34.709 88.189-97.994 126.53-141.69 146.23l97.845-80.997c50.858-121.21-55.831-81.446-60.737-71.969l-164.2 175.43 31.492-114.69c-13.227-56.528-37.688-77.71-69.161-76.894zm-117.54 1050.8l11.275 6.7389c-9.8096 12.934-18.849 23.58-31.492 45.013 5.1421 89.372 38.554 138.36 62.983 200.18l47.821 118.54c-13.487-32.022-26.646-64.052-38.835-96.074-49.852-31.348-64.458-69.377-170.94-89.94 5.1736-48.158-16.511-104.24 20.217-141.73-4.6428-20.388-11.726-43.241 6.7822-40.477 26.114 27.389 68.914 22.608 92.186-2.2463z"/>
   <path d="m98.34 196.38c146.23 31.585 68.007 164.23 75.547 284.69-89.948 29.134-58.987 17.271-77.933 44.533 32.719 50.248 64.913 122.32 80.318 52.485 4.137 4.652-5.8665-11.681 8.7737 11.11 6.116 9.5214-7.759 14.03-11.919 19.916-32.289 45.684 86.521 108.26 81.874 43.726 15.973-13.647 18.771-9.9276 11.426 7.1628-15.974 90.661 77.392 86.983 95.135 59.637 30.173-38.516 25.891-8.3071-1.2248 16.97-34.852 32.489 42.96 105.89 60.072 41.877 43.496-15.527 88.551 3.085 100.61 5.6437 10.122 2.1476-107.8-29.513-103.34 39.876-6.6502 71.987 30.154 69.505 56.801 31.618l-4.2891 17.989c-64.535 21.364-52.818 89.624-24.339 102.09-47.035 1.223-65.322 40.176-44.533 130.42 15.232 2.6711 34.802 15.463 38.171-9.5428-6.2471-24.013 11.555-39.007 20.676-57.257 87.038-20.979 39.116 76.283 45.328 104.18 37.671-17.02 54.549-48.891 78.728-75.547 0.088135-41.131-6.4836-78.932-52.485-97.018 25.844-56.992 24.937-113.98 23.857-170.98-79.839-123.38-197.02-144.43-300.6-205.96l-82.704-113.72"/>
   <path d="m116.63 131.17c226.24 33.878 103.67 234.01 147.91 353.08 108.11 125.16 194.82 104.83 354.67 286.28 29.312 13.967 62.486 4.0178 68.498 19.488 17.352 44.647 12.482 66.703 15.481 76.583 10.204 33.617-10.696-66.418-14.377-75.864-2.0945-5.3737 52.279-29.211 54.395-17.037 14.646 84.248 33.112 92.699 34.861 101.27 6.1821 30.274-37.648-84.743-35.795-100.84 3.221-4.8984 32.677-26.496 42.09-21.673 23.883 56.818 30.007 74.5 35.679 81.092 9.9468 11.561-14.95-24.262-34.077-82.205-5.2629-15.944 50.604-44.953 59.055-29.018 116.53 219.72 69.037 147.74 0.67725 0.10083-7.1211-15.38 23.486-41.43 33.746-39.699 17.806 3.0037 32.71-19.95 40.979-25.22 7.481-4.7675 86.911 101.83 94.392 129.4 6.2612 23.067 16.366-7.2167-95.106-133.76-5.0791-5.7655 2.0901-13.625 4.408-14.128 3.0977-0.67248 33.664-21.346 40.045-51.037 2.5598-11.911 104.02 7.6322 118.93 26.191 10.188 12.674-22.545-28.021-102.02-30.247-8.8394-0.24756-11.257 2.4344-21.029 4.344-5.3052 1.0369-5.2085-17.957-11.522-37.113-6.1191-18.566-17.542-38.655-33.117-49.853-9.773-7.0267 18.627 10.824 31.829 48.761 4.9568 14.244 7.2302 32.944 9.417 35.101 13.357 13.179-22.121 32.055-40.368 34.918-15.464 2.4268-19.568-77.843-32.797-136.51-5.3364-23.664 16.151 85.948 26.484 163.98 4.333 32.721-73.788 39.686-55.651 30.802 2.6052-1.2761-24.97-11.406-6.0374-48.24 10.804-21.019-52.228-136.88-78.761-126.6"/>
   <path d="m789.4 561.39c-11.097-16.386-54.37-32.18-80.405-37.766-15.06-4.928-25.993 1.0864-39.45 7.2371-263.87 122.5 42.177 384.77 139.74 153.79 12.554-14.398 7.7285-33.177-19.085-39.762-171.05 100.59-201.48-48.663-0.79541-83.499z"/>
   <path d="m790.99 574.91c22.187 23.839 16.144 44.498 20.676 64.414-65.166-3.4132-124.1 41.63-129.62 8.7476-35.047-43.391 107.95-86.471 108.95-73.161z"/>
   <path d="m525.38 1207.9c0 41.284-35.604 74.752-79.523 74.752s-79.523-33.467-79.523-74.752c0-41.284 35.604-74.752 79.523-74.752s79.523 33.467 79.523 74.752z"/>
   <path d="m207.29 1209.5c0 26.352-20.65 47.714-46.123 47.714s-46.124-21.362-46.124-47.714 20.65-47.714 46.124-47.714c25.473 0 46.123 21.362 46.123 47.714z"/>
   <path d="m277.27 1328.8c0 23.717-21.362 42.943-47.714 42.943s-47.714-19.226-47.714-42.943 21.362-42.943 47.714-42.943 47.714 19.226 47.714 42.943z"/>
   <path d="m404.5 1368.6c0 26.352-22.074 47.714-49.304 47.714s-49.304-21.362-49.304-47.714 22.074-47.714 49.304-47.714 49.304 21.362 49.304 47.714z"/>
   <path d="m522.2 1357.4c0 28.987-23.499 52.485-52.486 52.485s-52.485-23.498-52.485-52.485 23.498-52.485 52.485-52.485 52.486 23.498 52.486 52.485z"/>
   <path d="m623.99 1276.3c0 24.595-19.938 44.533-44.533 44.533s-44.533-19.938-44.533-44.533 19.938-44.533 44.533-44.533 44.533 19.938 44.533 44.533z"/>
   <path d="m671.7 1157c0 27.23-22.074 49.304-49.304 49.304s-49.304-22.074-49.304-49.304 22.074-49.304 49.304-49.304 49.304 22.074 49.304 49.304z"/>
   <path d="m916.63 1184.1c0 24.595-19.938 44.533-44.533 44.533s-44.533-19.938-44.533-44.533 19.938-44.533 44.533-44.533 44.533 19.938 44.533 44.533z"/>
   <path d="m1049.1 1215.9c0 29.865-24.211 54.076-54.076 54.076-29.866 0-54.076-24.211-54.076-54.076s24.211-54.076 54.076-54.076 54.076 24.211 54.076 54.076z"/>
   <path d="m1187 1204.7c0 34.257-24.923 62.028-55.666 62.028-30.744 0-55.666-27.771-55.666-62.028s24.923-62.028 55.666-62.028c30.744 0 55.666 27.771 55.666 62.028v-1.22e-4z"/>
   <path d="m125.02 91.298c78.311 32.003 88.854-37.977 26.605-58.734"/>
   <path d="m230.35 120.84c21.58-9.0803 52.904-7.5118 79.523-11.133l-53.28 3.9761c104.27 85.858 76.969 224.45 92.247 345.13 22.787 24.537 83.997 66.708 107.47 78.831 0.5769 0.29785-77.777 39.947-69.298 45.225"/>
   <path d="m410.87 294.99c-8.0342 46.511-8.9211 82.302 0 103.38 29.159 35.094 58.317 58.606 87.476 55.666 7.748-25.447 6.5139-50.895 1.5903-76.342-19.557-37.699-50.438-64.075-89.066-82.704l-2e-4 1e-4z"/>
   <path d="m324.98 166.16z"/>
   <path d="m449.04 169.34c-97.266 110.6 77.726 110.4 72.359 196.19-10.389 166.08 144.05 229.52 146.33 93.27"/>
   <path d="m472.89 191.61c2.8577 92.958 68.223 71.238 85.885 36.581"/>
   <path d="m557.19 385.65c7.0456 2.4551 19.403 27.126 28.57 28.928 13.955 2.7432 31.069-13.909 37.435-34.494-7.9656 32.61-1.2361 59.342 11.928 83.499-23.03-9.7222-46.576-18.672-77.933-15.905 1.1987-12.194 7.3816-24.387-3.1812-36.581"/>
   <path d="m450.63 533.56l3.1809 9.5428c-48.891 62.963 17.237 127.78 77.933 69.98 76.869-95.118 2.2805-107.18-46.124-133.6-20.342-16.297-51.228-53.681-79.523-85.885-13.306-82.14 17.003-164.69-82.704-217.89"/>
   <path d="m700.33 62.783c-37.615-8.9075-67.886-21.842-109.74-47.714-1.2307-23.469 1.5149-43.624 25.447-46.123 37.047 14.314 72.337 31.809 97.018 46.123"/>
   <path d="m1115.4-143.98c-35.31 12.517-149.23 119.36-230.62 206.76"/>
   <path d="m1121.8-108.99c-27.744 18.778-139.06 114.28-249.7 216.3"/>
   <path d="m1183.8-66.044c-43.847 81.608-200.89 136.1-308.55 201.99"/>
   <path d="m891.19 151.85c102.43-54.961 286.56-129.78 297.42-171.77"/>
   <path d="m1132.9 75.507c-74.752 35.52-100.98 25.539-230.62 104.97"/>
   <path d="m1228.4 100.95c-132.52 31.904-298.47 61.842-294.24 101.79"/>
   <path d="m1215.6 134.35c-47.675 40.071-240.61 57.274-275.15 89.066"/>
   <path d="m1023.2 530.38c-64.627-0.14966-72.833-44.41-62.028-90.656"/>
   <path d="m778.26 893.01c9.752 14.846 30.182 23.759 77.933 17.495l-44.533 264.02"/>
   <path d="m853.02 910.5c37.181-3.9183 27.651-26.636 38.171-38.171 24.044-1.4348 52.424-11.542 60.438 19.086l-34.99 550.3"/>
   <path d="m948.44 881.87c16.411-35.012 38.136-65.3 92.247-66.799 15.532 253.68 36.12 482.09 55.666 715.71"/>
   <path d="m902.32 921.63l-30.219 203.58"/>
   <path d="m988.2 888.23l6.3618 232.21"/>
   <path d="m999.34 1300.2c2.7515 59.701-8.2878 117.4-5.4993 176.28 36.523 114.89 55.18-125.08 50.032-139.69"/>
   <path d="m1070.9 778.49l25.447 337.18"/>
   <path d="m1125 1281.1l7.9524 195.63c96.46 76.042 31.56-121.53 41.352-192.45"/>
   <path d="m903.91 1230.2c-7.0242 32.87-8.3091 65.739 1.5906 98.609"/>
   <path d="m827.57 1259.6l108.15 268.79"/>
   <path d="m897.55 1293.8c-13.508 10.073-23.595 20.146-28.628 30.219-7.8555-22.364-11.482-48.956-27.038-63.618"/>
   <path d="m26.769 290.62c29.688 38.705 68.768 39.84 103.78 57.257-3.332 22.472 5.2229 33.461-24.419 65.626 27.504 10.398 46.663 12.54 68.602 11.808-2.7102-19.32 29.94-73.67-46.672-78.724"/>
   <path d="m78.574 1487c-9.5627-64.215-10.365-99.05-42.736-103.47-32.069-0.093994-57.14 48.86-65.228 114.71 56.206 29.948 87.623 18.58 107.96-11.246z"/>
   <path d="m143.8 1487c-54.353-481.88-280.88-63.608-265.35 55.846 24.657 62.495 131.14 38.25 154.52 19.312"/>
   <path d="m71.827 1489.2c111.06 17.986 213.77-30.814 319.4-56.188 16.594-3.2732 22.477-0.12036 32.294 0.67358 38.344 13.81 79.849 17.342 112.77 48.767 4.5405 30.994-57.633 24.832-80.686 25.788-6.343 0.26282-0.022217-2.6143-4.7854 1.2036 35.808 8.2451 84.701 17.028 105.21 32.177 46.741 34.531 30.93 78.55-18.611 56.669l-101.22-32.614 119.21 38.237c47.244 63.46-8.5674 61.816-33.739 58.481l-119.21-51.733 89.97 40.486c13.862 31.652 30.224 60.797-49.484 53.982l-58.481-38.238 48.359 32.614c29.77 32.524-0.38159 52.099-41.611 46.11l-110.21-76.475c-160.36 49.904-334.24 32.218-506.08 24.742"/>
   <path d="m231.52 1478c-0.80859 79.621 4.5576 143.8 15.745 193.44"/>
   <path d="m177.54 1487c-8.5037 81.9 2.4141 151.68 11.246 204.68"/>
   <path d="m80.824 1491.5c10 88.354 8.4758 147.9 6.7476 206.93"/>
   <path d="m38.088 1513.9l-11.246 184.44"/>
   <path d="m87.571 1566.2c22.026-17.71 51.798-21.491 85.472-27.554"/>
   <path d="m88.696 1630.9c14.1 2.0586 15.647 2.5916 30.164 2.9807 16.205 0.43433 39.902-2.1133 58.681-11.978"/>
   <path d="m232.97 1528.9c45.735-20.31 184.49-31.382 230.22-21.721"/>
   <path d="m776.41 1737.7c55.224-16.031 143.25-19.97 198.5-62.979"/>
   <path d="m798.34 1809.7c67.188-9.5349 126.1-39.759 187.81-62.979"/>
   <path d="m835.45 1896.3c67.453-16.43 117.8-39.699 170.94-61.855"/>
   <path d="m866.94 1949.2c52.361-18.617 115.55-31.821 151.82-58.48"/>
   <path d="m868.06 1705.1c-97.324-274.63-191.33-599.46-335.14-170.94"/>
   <path d="m-226.59 1703c105.54 13.743 296.96-30.242 301.82 12.881-98.69 42.148-67.024 97.158-90.175 99.894-38.454 4.5452-145.72 20.365-160.19 37.446l-22.657 26.742c18.32-13.848 12.596-17.972 32.002-27.124l23.715-11.045c67.868-31.608 227.94 58.684 288.13 110.8"/>
   <path d="m168.54 1867.1c-26.834 2.8828-95.216-46.419-87.721-56.231 5.2485 4.5781 11.23 7.7354 15.054 12.45 111.35 137.27 82.326-167.8-41.535-97.191-51.89 37.301-66.937 69.306-54.493 127.48"/>
   <path d="m143.8 2040.3c36.6-97.527 22.458-234.47 20.243-348.63"/>
   <path d="m231.52 1995.3c21.508-60.09 2.4819-140.45 2.5762-211.24l85.319-2.1863c2.9412 82.077 5.8818 141.41 8.8228 206.68"/>
   <path d="m388.97 1738.9c-41.27 66.157-13.076 163.74 15.745 247.42-246.4 108.88-483.36 12.012-717.51 26.991-54.237 32.053-157.52 25.793-101.22 130.46"/>
   <path d="m622.89 2065c-52.65-140.69-162.63-60.632-190.23-89.202-11.185-11.576-21.729-57.369 1.2959-101.98-40.218-20.075-28.421-69.874-29.24-112.46 52.483-3.5798 104.96-26.622 157.45 2.2493"/>
   <path d="m114.56 2060.5l15.745 157.45"/>
   <path d="m179.79 2062.8l13.495 155.2"/>
   <path d="m294.5 2033.5l35.988 184.44"/>
   <path d="m352.98 2022.3l38.237 128.21 256.42-2.2495c138.07-18.794 129.75-207.22-38.237-233.92-46.122 10.423-92.001 22.306-143.95-2.2493"/>
   <path d="m427.21 1869.3c180.36 0.40942 101.17-10.466 150.7-15.745"/>
   <path d="m197.78 2074c16.585-1.9675 30.86-3.4727 76.475-11.246"/>
   <path d="m195.54 2150.5c7.9473 3.314 27.096 3.2676 94.468-11.246"/>
   <path d="m206.78 2197.7l94.469-11.246"/>
   <path d="m-586.08 1849.1v299.15"/>
   <path d="m-483.74 1860.3l-6.7478 287.9"/>
   <path d="m386.72 1307c-161.26-40.077-69.296-100.31-103.75-161.54-36.587-65.033-74.911-7.929-138.19-18.638-17.121-2.8975-38.35 38.306-76.002 8.0352"/>
   <path d="m110.06 834.67c98.218 179.46 105.85 82.472 111.34 196.81"/>
   <path d="m681.25 134.35l46.123-167"/>
   <path d="m980.25 234.55c-105.46-20.172-136.56-86.124-85.09-199.6"/>
   <path d="m-308.02 1848.1c-6.5332 58.924-17.152 116.86 50.895 155.07"/>
   <path d="m-15.575 1756.7c-61.902-16.987-181.15-46.374-217.09-7.4717-48.918 52.954-58.124 162.28-5.4513 198.35 30.965 21.207 256.76 70.045 340.01 50.814"/>
   <path d="m-685.14 1903.1l67.478-13.496"/>
   <path d="m-685.14 1976.1l67.478-8.9971"/>
   <path d="m-681.67 2032.8l76.475-4.4985"/>
   <path d="m-681.67 2092.7l62.979-4.4988"/>
   <path d="m401.32 1984.8l38.171-3.1809"/>
   <path d="m786.22 1788.4l209.94 38.171"/>
  </g>
  <g fill="none">
   <path d="m156.39 748.27c-7.5862 33.214 15.369 44.612 36.581 57.257 33.711 3.8038 63.832 0.4281 89.066-12.724-10.756-21.405-19.08-43.568-46.124-58.847-33.331-5.4636-63.027-5.4746-79.523 14.314h2.44e-4z"/>
   <path d="m857.38-155.41c-20.175 0.52359-43.237 10.079-68.038 25.142l-60.737 98.968c-25.314-36.823-55.31-66.961-119.23-97.845-73.802 31.28-98.253 74.034-118.06 133.83 18.38 32.485-15.877 58.754 122.6 108 5.3909-1.0947 22.757 8.1912 37.108 1.1232l34.861 25.833c9.677 43.486 17.27 86.974 47.216 130.46 66.108 37.039 129.45 69.306 224.94 103.46v24.753c-58.242-46.519-63.097-19.473-104.58-15.724l-34.861 29.246c-16.636 25.819-34.65 58.781-48.383 93.309-15.492-24.245-39.842-39.607-64.107-55.078-44.499-97.503-100.9-199.08-166.44-314.92-47.062-19.296-70.934-0.45648-91.062 37.108-70.827-2.9357-46.042-56.222-66.353-91.063l-22.506-22.506c-0.98144-17.233 13.431-25.235 26.999-33.738-6.9429 18.369-12.14 36.752 4.4927 55.121 46.294 10.567 50.396-22.237 53.998-48.382-132.21-119.32-91.455-16.238-130.46-15.724l-22.506-29.245 33.738-29.246c-14.618-20.496-32.642-36.496-56.245-45.013-32.897 15.556-44.969 45.037-60.737 72.012-127.9-39.094-124.6 83.158-80.954 110.2l-6.6096 40.736c-20.773 2.5056-40.827 7.8246-58.621 22.247-10.679 11.433-11.003 20.801-6.739 29.246 19.749 24.39 30.594 8.7717 44.97 8.9853-12.143 0.74628 4.3928 13.922-6.6526 16.459-64.574 14.829-70.855 86.461-81.084 156.72 21.124 51.602 27.779 117.73 67.52 150.72 8.6108 40.865 29.661 77.557 56.201 112.45l7.8191 6.6958c-31.023 31.873-69.012 56.292-82.596 99.443-14.407 45.767-29.06 78.304-53.998 128.08-3.3335 6.61-2.2009 10.105 0.51831 12.355 4.3874 2.5945 36.926 26.765 54.374 23.493 3.1965-0.59936 1.3328-0.51941 4.1716 0.4928 65.316 23.286 77.906-24.387 43.03-63.893-11.542-13.074 61.015 68.3-16.696 70.82 2.7473 2.5582-6.0278-2.0051-21.487-5.5466-3.1687-0.72595-6.6179-1.4089-10.306-1.9789-18.039-2.7874-31.922-7.0603-34.188-12.565-14.749 22.24-16.426 62.417-13.552 87.279 0.36792-1.847-1.0706 3.5302 3.0754 4.2637 15.097-7.8746 26.747-10.899 38.166-11.924 44.253-1.6078 59.45 16.2 64.756 17.507 9.3013 2.291-28.086-14.67-68.168-6.2107-6.863 1.4485-17.996 5.0509-22.426 11.371l-8.9143 8.4948c-0.32983 0.25232-0.66406 0.47705-0.99365 0.73438-3.4995 6.0149-4.9609 11.635-5.0974 16.977-2.7517 16.679 5.9519 30.494 14.936 44.24 38.443 34.706 44.386 60.205 35.064 76.908-0.24268 0.43481-0.49585 0.86377-0.75903 1.2869-0.86279 1.3867-1.8332 2.7095-2.9014 3.9685-0.36328 0.42847-0.73779 0.84924-1.1233 1.2628-20.763 22.281-72.968 23.176-90.617 4.2623-92.239-11.882-95.348 45.567-119.7 86.484l-135.17 329.22c-3.1978 77.584 22.278 116.93 66.958 130.68l-0.1729 0.5618-1.2629-3.1082c-96.49 27.24-75.951 113.34-88.072 157.46-92.538 21.604-240.57-3.0068-365.63-8.5068-4.1151-0.18091-4.8314 1.908-8.894 1.7708l-3.1499 7.8525 6.5582 295.79 276.64 2.2463c11.031-15.21 21.821-30.689 56.244-22.507l314.87 96.722h409.35l375.66-17.971c126.09-167.37 51.998-256.92-33.738-341.92-41.376-8.5266-79.355-10.203-114.74-6.739-1.5991-26.641-10.48-55.119-35.984-87.736 38.665-102.9 73.574-203.18 89.982-335.14 45.335 4.3216 103.98 359.77 215.91 526.33 4.7656 36.738-9.898 73.505-22.463 110.24l20.217 110.2c4.7913 20.854 48.378 29.943 50.629-2.2463l-12.355-101.21 17.712 128.47c17.025 28.398 47.398 23.175 53.393-1.6848l-21.643-124.54 26.438 135.77c30.661 31.027 45.826 14.202 54.517-8.1213l-31.449-131.02 31.19 125.66c24.105 14.457 37.319 6.1685 44.97-13.78-12.488-61.644-18.2-96.19-27.82-137.76 23.08 27.54 34.629 21.017 50.629 58.491 79.566 37.331 37.284-21.13 24.71-56.245l-109.08-121.47-53.998-276.64c-8.3638-43.587-20.724-87.175-35.51-130.76l11.923 29.548c70.172 50.914 95.01 17.277 121.43-13.478l31.492-6.7822c44.811 93.784 157.48-8.2616 128.21-85.447l-101.21-726.51-62.983-40.477 40.477-18.014c32.945-34.088 30.085-70.921 24.753-107.95l-107.95-24.753c81.799-14.695 167.14-24.076 232.8-62.984 27.73-46.522 68.855-124.63-73.092-150.68l-173.23 65.23c-11.293-37.28-12.664-74.533-44.412-114.74 8.8176-20.169 17.13-38.23 64.672-49.462l157.46-22.506c86.383 2.5148 54.286-85.232 80.955-128.21-39.202-0.41071-75.331-0.3114-96.722 2.2463l-38.608-26.064c26.306 9.3114 45.434 4.2664 63.361-3.1809 115.6-91.249 7.0984-141.5-30.368-173.18 34.709 88.189-97.994 126.53-141.69 146.23l97.845-80.997c50.858-121.21-55.831-81.446-60.737-71.969l-164.2 175.43 31.492-114.69c-13.227-56.528-37.688-77.71-69.161-76.894zm-117.54 1050.8l11.275 6.7389c-9.8096 12.934-18.849 23.58-31.492 45.013 5.1421 89.372 38.554 138.36 62.983 200.18l47.821 118.54c-13.487-32.022-26.646-64.052-38.835-96.074-49.852-31.348-64.458-69.377-170.94-89.94 5.1736-48.158-16.511-104.24 20.217-141.73-4.6428-20.388-11.726-43.241 6.7822-40.477 26.114 27.389 68.914 22.608 92.186-2.2463z"/>
   <path d="m98.34 196.38c146.23 31.585 68.007 164.23 75.547 284.69-89.948 29.134-58.987 17.271-77.933 44.533 32.719 50.248 64.913 122.32 80.318 52.485 4.137 4.652-5.8665-11.681 8.7737 11.11 6.116 9.5214-7.759 14.03-11.919 19.916-32.289 45.684 86.521 108.26 81.874 43.726 15.973-13.647 18.771-9.9276 11.426 7.1628-15.974 90.661 77.392 86.983 95.135 59.637 30.173-38.516 25.891-8.3071-1.2248 16.97-34.852 32.489 42.96 105.89 60.072 41.877 43.496-15.527 88.551 3.085 100.61 5.6437 10.122 2.1476-107.8-29.513-103.34 39.876-6.6502 71.987 30.154 69.505 56.801 31.618l-4.2891 17.989c-64.535 21.364-52.818 89.624-24.339 102.09-47.035 1.223-65.322 40.176-44.533 130.42 15.232 2.6711 34.802 15.463 38.171-9.5428-6.2471-24.013 11.555-39.007 20.676-57.257 87.038-20.979 39.116 76.283 45.328 104.18 37.671-17.02 54.549-48.891 78.728-75.547 0.088135-41.131-6.4836-78.932-52.485-97.018 25.844-56.992 24.937-113.98 23.857-170.98-79.839-123.38-197.02-144.43-300.6-205.96l-82.704-113.72"/>
   <path d="m116.63 131.17c226.24 33.878 103.67 234.01 147.91 353.08 108.11 125.16 194.82 104.83 354.67 286.28 29.312 13.967 62.486 4.0178 68.498 19.488 17.352 44.647 12.482 66.703 15.481 76.583 10.204 33.617-10.696-66.418-14.377-75.864-2.0945-5.3737 52.279-29.211 54.395-17.037 14.646 84.248 33.112 92.699 34.861 101.27 6.1821 30.274-37.648-84.743-35.795-100.84 3.221-4.8984 32.677-26.496 42.09-21.673 23.883 56.818 30.007 74.5 35.679 81.092 9.9468 11.561-14.95-24.262-34.077-82.205-5.2629-15.944 50.604-44.953 59.055-29.018 116.53 219.72 69.037 147.74 0.67725 0.10083-7.1211-15.38 23.486-41.43 33.746-39.699 17.806 3.0037 32.71-19.95 40.979-25.22 7.481-4.7675 86.911 101.83 94.392 129.4 6.2612 23.067 16.366-7.2167-95.106-133.76-5.0791-5.7655 2.0901-13.625 4.408-14.128 3.0977-0.67248 33.664-21.346 40.045-51.037 2.5598-11.911 104.02 7.6322 118.93 26.191 10.188 12.674-22.545-28.021-102.02-30.247-8.8394-0.24756-11.257 2.4344-21.029 4.344-5.3052 1.0369-5.2085-17.957-11.522-37.113-6.1191-18.566-17.542-38.655-33.117-49.853-9.773-7.0267 18.627 10.824 31.829 48.761 4.9568 14.244 7.2302 32.944 9.417 35.101 13.357 13.179-22.121 32.055-40.368 34.918-15.464 2.4268-19.568-77.843-32.797-136.51-5.3364-23.664 16.151 85.948 26.484 163.98 4.333 32.721-73.788 39.686-55.651 30.802 2.6052-1.2761-24.97-11.406-6.0374-48.24 10.804-21.019-52.228-136.88-78.761-126.6"/>
   <path d="m789.4 561.39c-11.097-16.386-54.37-32.18-80.405-37.766-15.06-4.928-25.993 1.0864-39.45 7.2371-263.87 122.5 42.177 384.77 139.74 153.79 12.554-14.398 7.7285-33.177-19.085-39.762-171.05 100.59-201.48-48.663-0.79541-83.499z"/>
   <path d="m790.99 574.91c22.187 23.839 16.144 44.498 20.676 64.414-65.166-3.4132-124.1 41.63-129.62 8.7476-35.047-43.391 107.95-86.471 108.95-73.161z"/>
   <path d="m525.38 1207.9c0 41.284-35.604 74.752-79.523 74.752s-79.523-33.467-79.523-74.752c0-41.284 35.604-74.752 79.523-74.752s79.523 33.467 79.523 74.752z"/>
   <path d="m207.29 1209.5c0 26.352-20.65 47.714-46.123 47.714s-46.124-21.362-46.124-47.714 20.65-47.714 46.124-47.714c25.473 0 46.123 21.362 46.123 47.714z"/>
   <path d="m277.27 1328.8c0 23.717-21.362 42.943-47.714 42.943s-47.714-19.226-47.714-42.943 21.362-42.943 47.714-42.943 47.714 19.226 47.714 42.943z"/>
   <path d="m404.5 1368.6c0 26.352-22.074 47.714-49.304 47.714s-49.304-21.362-49.304-47.714 22.074-47.714 49.304-47.714 49.304 21.362 49.304 47.714z"/>
   <path d="m522.2 1357.4c0 28.987-23.499 52.485-52.486 52.485s-52.485-23.498-52.485-52.485 23.498-52.485 52.485-52.485 52.486 23.498 52.486 52.485z"/>
   <path d="m623.99 1276.3c0 24.595-19.938 44.533-44.533 44.533s-44.533-19.938-44.533-44.533 19.938-44.533 44.533-44.533 44.533 19.938 44.533 44.533z"/>
   <path d="m671.7 1157c0 27.23-22.074 49.304-49.304 49.304s-49.304-22.074-49.304-49.304 22.074-49.304 49.304-49.304 49.304 22.074 49.304 49.304z"/>
   <path d="m916.63 1184.1c0 24.595-19.938 44.533-44.533 44.533s-44.533-19.938-44.533-44.533 19.938-44.533 44.533-44.533 44.533 19.938 44.533 44.533z"/>
   <path d="m1049.1 1215.9c0 29.865-24.211 54.076-54.076 54.076-29.866 0-54.076-24.211-54.076-54.076s24.211-54.076 54.076-54.076 54.076 24.211 54.076 54.076z"/>
   <path d="m1187 1204.7c0 34.257-24.923 62.028-55.666 62.028-30.744 0-55.666-27.771-55.666-62.028s24.923-62.028 55.666-62.028c30.744 0 55.666 27.771 55.666 62.028v-1.22e-4z"/>
   <path d="m125.02 91.298c78.311 32.003 88.854-37.977 26.605-58.734"/>
   <path d="m230.35 120.84c21.58-9.0803 52.904-7.5118 79.523-11.133l-53.28 3.9761c104.27 85.858 76.969 224.45 92.247 345.13 22.787 24.537 83.997 66.708 107.47 78.831 0.5769 0.29785-77.777 39.947-69.298 45.225"/>
   <path d="m410.87 294.99c-8.0342 46.511-8.9211 82.302 0 103.38 29.159 35.094 58.317 58.606 87.476 55.666 7.748-25.447 6.5139-50.895 1.5903-76.342-19.557-37.699-50.438-64.075-89.066-82.704l-2e-4 1e-4z"/>
   <path d="m324.98 166.16z"/>
   <path d="m449.04 169.34c-97.266 110.6 77.726 110.4 72.359 196.19-10.389 166.08 144.05 229.52 146.33 93.27"/>
   <path d="m472.89 191.61c2.8577 92.958 68.223 71.238 85.885 36.581"/>
   <path d="m557.19 385.65c7.0456 2.4551 19.403 27.126 28.57 28.928 13.955 2.7432 31.069-13.909 37.435-34.494-7.9656 32.61-1.2361 59.342 11.928 83.499-23.03-9.7222-46.576-18.672-77.933-15.905 1.1987-12.194 7.3816-24.387-3.1812-36.581"/>
   <path d="m450.63 533.56l3.1809 9.5428c-48.891 62.963 17.237 127.78 77.933 69.98 76.869-95.118 2.2805-107.18-46.124-133.6-20.342-16.297-51.228-53.681-79.523-85.885-13.306-82.14 17.003-164.69-82.704-217.89"/>
   <path d="m700.33 62.783c-37.615-8.9075-67.886-21.842-109.74-47.714-1.2307-23.469 1.5149-43.624 25.447-46.123 37.047 14.314 72.337 31.809 97.018 46.123"/>
   <path d="m1115.4-143.98c-35.31 12.517-149.23 119.36-230.62 206.76"/>
   <path d="m1121.8-108.99c-27.744 18.778-139.06 114.28-249.7 216.3"/>
   <path d="m1183.8-66.044c-43.847 81.608-200.89 136.1-308.55 201.99"/>
   <path d="m891.19 151.85c102.43-54.961 286.56-129.78 297.42-171.77"/>
   <path d="m1132.9 75.507c-74.752 35.52-100.98 25.539-230.62 104.97"/>
   <path d="m1228.4 100.95c-132.52 31.904-298.47 61.842-294.24 101.79"/>
   <path d="m1215.6 134.35c-47.675 40.071-240.61 57.274-275.15 89.066"/>
   <path d="m1023.2 530.38c-64.627-0.14966-72.833-44.41-62.028-90.656"/>
   <path d="m778.26 893.01c9.752 14.846 30.182 23.759 77.933 17.495l-44.533 264.02"/>
   <path d="m853.02 910.5c37.181-3.9183 27.651-26.636 38.171-38.171 24.044-1.4348 52.424-11.542 60.438 19.086l-34.99 550.3"/>
   <path d="m948.44 881.87c16.411-35.012 38.136-65.3 92.247-66.799 15.532 253.68 36.12 482.09 55.666 715.71"/>
   <path d="m902.32 921.63l-30.219 203.58"/>
   <path d="m988.2 888.23l6.3618 232.21"/>
   <path d="m999.34 1300.2c2.7515 59.701-8.2878 117.4-5.4993 176.28 36.523 114.89 55.18-125.08 50.032-139.69"/>
   <path d="m1070.9 778.49l25.447 337.18"/>
   <path d="m1125 1281.1l7.9524 195.63c96.46 76.042 31.56-121.53 41.352-192.45"/>
   <path d="m903.91 1230.2c-7.0242 32.87-8.3091 65.739 1.5906 98.609"/>
   <path d="m827.57 1259.6l108.15 268.79"/>
   <path d="m897.55 1293.8c-13.508 10.073-23.595 20.146-28.628 30.219-7.8555-22.364-11.482-48.956-27.038-63.618"/>
   <path d="m26.769 290.62c29.688 38.705 68.768 39.84 103.78 57.257-3.332 22.472 5.2229 33.461-24.419 65.626 27.504 10.398 46.663 12.54 68.602 11.808-2.7102-19.32 29.94-73.67-46.672-78.724"/>
   <path d="m78.574 1487c-9.5627-64.215-10.365-99.05-42.736-103.47-32.069-0.093994-57.14 48.86-65.228 114.71 56.206 29.948 87.623 18.58 107.96-11.246z"/>
   <path d="m143.8 1487c-54.353-481.88-280.88-63.608-265.35 55.846 24.657 62.495 131.14 38.25 154.52 19.312"/>
   <path d="m71.827 1489.2c111.06 17.986 213.77-30.814 319.4-56.188 16.594-3.2732 22.477-0.12036 32.294 0.67358 38.344 13.81 79.849 17.342 112.77 48.767 4.5405 30.994-57.633 24.832-80.686 25.788-6.343 0.26282-0.022217-2.6143-4.7854 1.2036 35.808 8.2451 84.701 17.028 105.21 32.177 46.741 34.531 30.93 78.55-18.611 56.669l-101.22-32.614 119.21 38.237c47.244 63.46-8.5674 61.816-33.739 58.481l-119.21-51.733 89.97 40.486c13.862 31.652 30.224 60.797-49.484 53.982l-58.481-38.238 48.359 32.614c29.77 32.524-0.38159 52.099-41.611 46.11l-110.21-76.475c-160.36 49.904-334.24 32.218-506.08 24.742"/>
   <path d="m231.52 1478c-0.80859 79.621 4.5576 143.8 15.745 193.44"/>
   <path d="m177.54 1487c-8.5037 81.9 2.4141 151.68 11.246 204.68"/>
   <path d="m80.824 1491.5c10 88.354 8.4758 147.9 6.7476 206.93"/>
   <path d="m38.088 1513.9l-11.246 184.44"/>
   <path d="m87.571 1566.2c22.026-17.71 51.798-21.491 85.472-27.554"/>
   <path d="m88.696 1630.9c14.1 2.0586 15.647 2.5916 30.164 2.9807 16.205 0.43433 39.902-2.1133 58.681-11.978"/>
   <path d="m232.97 1528.9c45.735-20.31 184.49-31.382 230.22-21.721"/>
   <path d="m776.41 1737.7c55.224-16.031 143.25-19.97 198.5-62.979"/>
   <path d="m798.34 1809.7c67.188-9.5349 126.1-39.759 187.81-62.979"/>
   <path d="m835.45 1896.3c67.453-16.43 117.8-39.699 170.94-61.855"/>
   <path d="m866.94 1949.2c52.361-18.617 115.55-31.821 151.82-58.48"/>
   <path d="m868.06 1705.1c-97.324-274.63-191.33-599.46-335.14-170.94"/>
   <path d="m-226.59 1703c105.54 13.743 296.96-30.242 301.82 12.881-98.69 42.148-67.024 97.158-90.175 99.894-38.454 4.5452-145.72 20.365-160.19 37.446l-22.657 26.742c18.32-13.848 12.596-17.972 32.002-27.124l23.715-11.045c67.868-31.608 227.94 58.684 288.13 110.8"/>
   <path d="m168.54 1867.1c-26.834 2.8828-95.216-46.419-87.721-56.231 5.2485 4.5781 11.23 7.7354 15.054 12.45 111.35 137.27 82.326-167.8-41.535-97.191-51.89 37.301-66.937 69.306-54.493 127.48"/>
   <path d="m143.8 2040.3c36.6-97.527 22.458-234.47 20.243-348.63"/>
   <path d="m231.52 1995.3c21.508-60.09 2.4819-140.45 2.5762-211.24l85.319-2.1863c2.9412 82.077 5.8818 141.41 8.8228 206.68"/>
   <path d="m388.97 1738.9c-41.27 66.157-13.076 163.74 15.745 247.42-246.4 108.88-483.36 12.012-717.51 26.991-54.237 32.053-157.52 25.793-101.22 130.46"/>
   <path d="m622.89 2065c-52.65-140.69-162.63-60.632-190.23-89.202-11.185-11.576-21.729-57.369 1.2959-101.98-40.218-20.075-28.421-69.874-29.24-112.46 52.483-3.5798 104.96-26.622 157.45 2.2493"/>
   <path d="m114.56 2060.5l15.745 157.45"/>
   <path d="m179.79 2062.8l13.495 155.2"/>
   <path d="m294.5 2033.5l35.988 184.44"/>
   <path d="m352.98 2022.3l38.237 128.21 256.42-2.2495c138.07-18.794 129.75-207.22-38.237-233.92-46.122 10.423-92.001 22.306-143.95-2.2493"/>
   <path d="m427.21 1869.3c180.36 0.40942 101.17-10.466 150.7-15.745"/>
   <path d="m197.78 2074c16.585-1.9675 30.86-3.4727 76.475-11.246"/>
   <path d="m195.54 2150.5c7.9473 3.314 27.096 3.2676 94.468-11.246"/>
   <path d="m206.78 2197.7l94.469-11.246"/>
   <path d="m-586.08 1849.1v299.15"/>
   <path d="m-483.74 1860.3l-6.7478 287.9"/>
   <path d="m386.72 1307c-161.26-40.077-69.296-100.31-103.75-161.54-36.587-65.033-74.911-7.929-138.19-18.638-17.121-2.8975-38.35 38.306-76.002 8.0352"/>
   <path d="m110.06 834.67c98.218 179.46 105.85 82.472 111.34 196.81"/>
   <path d="m681.25 134.35l46.123-167"/>
   <path d="m980.25 234.55c-105.46-20.172-136.56-86.124-85.09-199.6"/>
   <path d="m-308.02 1848.1c-6.5332 58.924-17.152 116.86 50.895 155.07"/>
   <path d="m-15.575 1756.7c-61.902-16.987-181.15-46.374-217.09-7.4717-48.918 52.954-58.124 162.28-5.4513 198.35 30.965 21.207 256.76 70.045 340.01 50.814"/>
   <path d="m-685.14 1903.1l67.478-13.496"/>
   <path d="m-685.14 1976.1l67.478-8.9971"/>
   <path d="m-681.67 2032.8l76.475-4.4985"/>
   <path d="m-681.67 2092.7l62.979-4.4988"/>
   <path d="m401.32 1984.8l38.171-3.1809"/>
   <path d="m786.22 1788.4l209.94 38.171"/>
  </g>
 </g>
</svg>
