<?xml version="1.0" encoding="UTF-8"?>
<svg viewBox="0 0 640 480" xmlns="http://www.w3.org/2000/svg">
 <path d="m85.732 325.06c0-2.036 0.599-2.204 18.605-5.195 19.52-3.244 24.882-5.541 29.632-12.699 4.682-7.056 20.118-38.112 24.27-48.828 1.812-4.675 4.735-11.65 6.499-15.5 4.34-9.474 6.994-17.258 6.994-20.509 0-4.495-3.975-9.068-11-12.658-3.575-1.826-7.851-3.326-9.5-3.333-5.147-0.020996-25.136-6.187-29.984-9.248-12.423-7.844-18.409-13.075-22.03-19.252-1.29-2.2-3.32-7.825-4.512-12.5-4.146-16.261-1.486-28.036 15.447-68.418 5.18-12.35 5.728-17.41 2.559-23.622-1.693-3.318-2.52-3.96-5.099-3.96-4.604 0-9.413 2.697-12.167 6.824-3.116 4.669-11.062 13.181-12.284 13.16-2.467-0.040001-3.619-1.848-2.994-4.695 1.514-6.892 18.129-29.858 23.308-32.218 5.901-2.689 17.658 9.209 20.164 20.406 2.103 9.396-0.767 21.292-9.21 38.179-1.882 3.764-3.943 8.455-4.582 10.426-0.638 1.97-2.05 5.327-3.138 7.461s-1.978 4.501-1.978 5.262-0.952 4.519-2.116 8.35c-2.84 9.351-2.294 16.155 2.051 25.565 10.212 22.117 42.209 35.146 62.889 25.607 11.884-5.482 23.187-21.923 23.171-33.704-0.007996-5.385-1.576-10.887-3.934-13.794-2.588-3.192-3.406-1.901-1.574 2.484 3.02 7.227 1.57 16.437-3.938 25.03-6.604 10.305-13.916 15.628-25.079 18.26-7.006 1.651-7.635 1.647-14.038-0.085999-10.467-2.833-17.676-6.935-23.781-13.529-8.763-9.465-12.116-20.864-9.721-33.041 2.964-15.064 14.499-24.591 31.132-25.711 7.827-0.527 23.253 3.186 31.273 7.525 7.778 4.211 20.064 16.71 23.378 23.785 4.898 10.462 3.404 18.885-5.89 33.2-4.742 7.305-5.153 6.007 6.13 19.327 3.925 4.634 8.223 10.274 9.551 12.534 3.451 5.873 7.315 17.981 8.469 26.541 0.545 4.042 1.924 14.228 3.066 22.633 1.142 8.406 2.299 17.406 2.571 20 1.053 10.012 3.522 24.598 4.464 26.355 1.522 2.846 6.111 4.748 13.073 5.42 7.229 0.69699 10.218 2.547 7.816 4.839-1.158 1.105-7.942 1.528-32.464 2.025-17.051 0.34601-33.138 0.88699-35.75 1.203-4.33 0.52402-4.75 0.39099-4.75-1.507 0-2.359 0.40601-2.486 13.5-4.202 4.949-0.64801 10.947-1.762 13.328-2.474 3.943-1.18 4.271-1.146 3.688 0.38098-0.353 0.922 0.791 0.21301 2.54-1.574 1.75-1.788 3.543-3.25 3.985-3.25 4.755 0 3.346-36.981-2.478-65-2.012-9.679-6.655-20.995-11.101-27.051-4.253-5.793-9.958-10.949-12.115-10.949-1.674 0-1.571 0.87999 0.787 6.753 1.968 4.901-0.88899 14.393-10.107 33.583-25.414 52.907-28.026 58.984-28.026 65.192 0 2.795 2.987 5.474 6.105 5.474 2.693 0 6.895 2.521 6.895 4.139 0 0.67398-6.603 0.93799-19.25 0.771-10.588-0.14002-26.788 0.11798-36 0.57199-14.98 0.741-16.75 0.66-16.75-0.759zm60.399-139.56c0.284-0.46002-1.274-2.586-3.463-4.724-5.128-5.007-6.042-8.684-5.755-23.142 0.19899-10.015-0.048996-12.275-1.639-14.962-4.476-7.559-13.494-7.006-18.525 1.137-2.562 4.144-2.548 6.585 0.055 9.894 3.805 4.837 10.928 2.992 10.928-2.831 0-2.453-2.905-3.043-4.487-0.91002-1.29 1.74-1.511 1.757-3.059 0.23302-1.46-1.438-1.498-1.996-0.304-4.5 2.052-4.302 6.748-4.455 10.215-0.334 3.779 4.49 3.539 8.875-0.73299 13.405-3.521 3.732-5.675 4.266-10.229 2.534-4.178-1.589-4.907 0.107-2.443 5.681 3.583 8.101 10.541 14.024 20.541 17.485 5.662 1.961 8.147 2.25 8.898 1.034zm16.628-5.153c5.24-1.456 11.999-8.788 12.662-13.736 0.662-4.936-1.771-10.532-5.271-12.128-5.389-2.455-9.726-2.436-13.419 0.060013-7.408 5.004-3.678 14.882 5.145 13.628 3.06-0.436 3.758-3.783 0.942-4.52-2.301-0.60197-2.759-3.241-0.888-5.112 1.816-1.816 3.635-1.457 6.346 1.254 5.126 5.126 1.961 12.94-5.747 14.191-8.781 1.425-17.215-8.931-14.698-18.047 0.519-1.877 2.725-5.015 4.923-7 3.454-3.121 4.646-3.599 8.985-3.599 3.273 0 6.774 0.85501 10.133 2.475 2.821 1.361 5.516 2.237 5.987 1.946 1.462-0.90399-2.734-7.695-7.798-12.62-3.107-3.022-7.506-5.854-12.33-7.939-6.553-2.832-8.638-3.249-16.5-3.302-8.938-0.060005-14.5 0.794-14.5 2.225 0 0.41 2.264 1.551 5.031 2.533 9.613 3.414 13.399 12.308 12.309 28.91-0.824 12.54 1.539 17.184 10.344 20.323 4.681 1.67 4.098 1.637 8.344 0.45799zm81.403 122.67c-0.37199-0.97098-0.44899-1.993-0.17099-2.271 0.278-0.27798 0.105-2.29-0.38501-4.47-0.653-2.906-0.49899-4.901 0.57701-7.476 1.643-3.931 1.262-5.683-2.122-9.789-2.673-3.242-2.916-6.049-0.933-10.765 1.662-3.952 0.95401-6.345-3.523-11.917-2.844-3.537-3.09-4.392-2.633-9.138 0.651-6.788 3.838-9.854 10.242-9.854 3.532 0 4.771 0.50601 6.444 2.635 4.098 5.209 1.724 12.365-4.101 12.365-4.981 0-8.101-7.144-3.727-8.532 2.875-0.91202 5.053 1.288 2.629 2.655-2.117 1.195-1.368 2.877 1.28 2.877 2.633 0 4.025-2.831 2.759-5.609-2.584-5.673-10.996-2.866-11.572 3.861-0.24 2.805 0.351 4.301 2.803 7.094 4.14 4.715 4.992 8.093 3.513 13.92-1.108 4.364-1.006 5.18 1.231 9.855 2.166 4.526 2.317 5.583 1.349 9.431-0.601 2.384-1.099 6.497-1.106 9.141-0.016998 5.559-1.439 8.891-2.554 5.987zm-183.24-2.718c-2.772-2.583-2.787-5.932-0.041-9.422 1.772-2.254 2.677-2.624 5.185-2.123 4.316 0.86301 6.668 3.361 6.668 7.084 0 6.029-7.207 8.751-11.812 4.461zm115.01 0.839c-1.897-1.898-1.431-5.847 1.914-16.181 4.498-13.896 6.625-13.033 7.611 3.086 0.464 7.573 0.268 9.656-1.104 11.75-1.812 2.768-6.284 3.481-8.421 1.345zm-80.425-4.882c-0.502-3.419-0.40601-3.483 6.476-4.404 4.96-0.66501 4.992-0.707 5.167-6.96 0.064003-2.285 0.644-3.08 2.583-3.54 1.8-0.427 2.59-1.366 2.821-3.355 0.213-1.835 1.137-3.072 2.75-3.686 1.613-0.61398 2.429-1.706 2.429-3.257 0-3.985 2.082-5.448 8.762-6.155 4.838-0.51199 6.381-0.35199 6.786 0.70401 1.096 2.854 0.99901 21.972-0.118 23.501-2.369 3.238-3.43 0.198-3.43-9.825 0-9.646-0.06601-9.94-2.25-9.926-4.604 0.031006-5.117 1.225-5.877 13.669-0.396 6.499-0.756 12.793-0.798 13.986-0.072998 2.102-0.471 2.173-12.461 2.261l-12.385 0.09-0.455-3.103zm-48.957-32.168c-2.296-3.22-2.316-3.509-2.208-30.75 0.071003-17.68 0.606-30.893 1.5-37 1.285-8.779 1.571-9.525 3.773-9.837 2.377-0.33598 2.382-0.31299 1.832 7.5-0.303 4.31-1.049 11.824-1.656 16.698-1.749 14.02-1.864 43.937-0.176 45.984 2.334 2.834 3.91 0.15799 4.506-7.651 0.302-3.957 0.771-12.369 1.043-18.694 0.667-15.556 3.37-40.202 4.537-41.369 0.595-0.595 1.547-0.44801 2.564 0.397 1.219 1.011 1.448 2.226 0.93 4.907-0.736 3.801-1.02 8.975-1.922 35.064-0.882 25.506-1.881 32.309-5.323 36.25-2.525 2.892-6.747 2.219-9.4-1.499zm26.622 0.798c-4.084-6.233-4.752-11.225-5.199-38.907-0.239-14.772-0.135-28.862 0.232-31.311 0.576-3.842 0.966-4.408 2.848-4.141 2.171 0.31 2.179 0.396 2.015 22.811-0.163 22.379 1.276 40.011 3.442 42.178 0.576 0.57599 1.584 0.716 2.24 0.31099 0.898-0.55501 1.072-8.248 0.705-31.205-0.268-16.758-0.257-31.349 0.024002-32.425 0.294-1.127 1.197-1.824 2.132-1.646 1.726 0.32999 1.594-1.377 3.647 47.346 0.661 15.67 0.537 18.733-0.935 23.163-0.932 2.808-2.384 5.369-3.226 5.691-3.282 1.26-6.35 0.53799-7.925-1.865zm44.922-15.241c-4.614-2.301-7.724-8.408-7.1-13.946 0.808-7.162 6.258-11.361 14.744-11.361 3.33 0 4.811 0.689 8.131 3.787 3.306 3.083 4.146 4.616 4.517 8.25 1.087 10.643-10.44 18.182-20.292 13.27zm10.036-3.907c0.85799-0.329 2.457-2.048 3.552-3.818 2.902-4.697 1.292-10.166-3.596-12.208-3.174-1.326-3.857-1.294-7.181 0.33002-4.661 2.278-6.597 6.033-5.132 9.953 1.913 5.122 7.369 7.657 12.357 5.743zm82.365-34.005c-3.443-4.183-6.421-8.034-6.615-8.559-0.375-1.013 2.682-4.837 3.866-4.837 1.917 0 12.461 18.423 11.466 20.034-1.175 1.901-2.541 0.86102-8.717-6.638zm16.551-2.044c-2.647-3.106-6.95-7.987-9.563-10.847-2.613-2.859-4.75-5.873-4.75-6.696 0-1.434 2.993-4.809 4.264-4.809 1.031 0 12.246 14.23 15.146 19.219 2.591 4.457 2.879 8.781 0.584 8.781-0.478 0.001007-3.035-2.541-5.681-5.648zm5.05-13.625c-11.741-11.829-12.087-12.3-10.628-14.477 0.829-1.237 2.298-2.25 3.264-2.25 1.881 0 12.288 11.146 18.421 19.728 3.538 4.952 4.303 8.228 2.08 8.916-0.551 0.17102-6.462-5.192-13.137-11.917zm-35.386 0.748l-2.372-2.524 2.162-2.162c2.106-2.106 2.215-2.114 4.198-0.31999 2.292 2.075 2.619 4.548 0.83501 6.332-1.671 1.67-2.128 1.544-4.823-1.326zm42.318-10.371l-12.205-12.823 2.003-2.15c2.546-2.731 3.769-2.114 12.13 6.124 7.993 7.876 14.14 17.027 13.272 19.76-0.347 1.093-1.163 1.97-1.813 1.95-0.651-0.020996-6.674-5.808-13.387-12.861zm-48.045 4.23c-1.84-0.73498-1.522-5.015 0.427-5.763 2.45-0.94 5.091 1.987 3.734 4.139-1.196 1.896-2.352 2.347-4.161 1.624zm12.848-2.729c-2.363-2.517-2.273-5.385 0.23399-7.466 0.909-0.754 2.072-0.383 4.212 1.344 2.83 2.285 2.892 2.503 1.456 5.122-2.02 3.681-3.196 3.881-5.902 1zm-189.1-3.21c0-4.585 6.96-30.248 12.99-47.895 3.054-8.937 7.112-23.864 9.458-34.788 0.211-0.983-0.703-2.876-2.032-4.205-3.045-3.044-3.026-3.988 0.139-7.153 2.207-2.207 3.06-2.45 6.25-1.786 5.351 1.114 10.053 0.756 12.68-0.966 1.263-0.827 5.021-4.799 8.352-8.825 9.349-11.302 14.577-14.362 18.255-10.686 2.261 2.261 2.669 1.216-7.583 19.409-3.41 6.05-7.915 14.149-10.014 18-13.994 25.685-13.032 23.71-21.206 43.5-1.931 4.675-3.88 9.625-4.332 11-2.609 7.935-7.153 19.531-8.1 20.673-0.606 0.729-1.497 1.327-1.979 1.327-4.425 0 9.305-37.527 25.649-70.11 4.583-9.136 9.263-18.136 10.399-20 2.813-4.614 2.772-6.818-0.077999-4.295-7.256 6.423-23.371 38.218-36.192 71.405-2.443 6.325-4.758 12.625-5.142 14-3.318 11.859-7.514 18.224-7.514 11.395zm27.559-89.298c-1.227-1.986-2.559-1.144-2.559 1.618 0 2.501 0.127 2.587 1.618 1.096 0.89-0.89 1.314-2.112 0.941-2.714zm155.18 85.778c-2.137-1.196-2.259-4.198-0.239-5.874 1.196-0.993 1.803-0.993 3 0 3.172 2.632 0.73 7.827-2.761 5.874zm-134.64-1.497c-10.764-1.317-12.789-2.146-11.766-4.81 0.739-1.929 1.208-1.93 18.278-0.037018 13.082 1.45 15.863 2.37 15.034 4.97-0.452 1.415-9.398 1.364-21.546-0.12302zm148-2.262c-1.875-1.441-2.249-2.41-1.731-4.478 0.84599-3.367 3.534-3.428 6.615-0.148 2.27 2.417 2.285 2.548 0.519 4.5-2.206 2.438-2.39 2.442-5.403 0.12599zm-8.356-6.195c-2.378-1.385-2.208-4.604 0.313-5.954 3.688-1.975 6.755 2.814 3.736 5.834-1.432 1.432-1.778 1.443-4.049 0.12zm-139-1.444c-4.811-0.589-9.228-1.551-9.814-2.138-1.574-1.574 1.813-4.609 4.455-3.99 1.158 0.27103 7.161 1.036 13.34 1.7 10.888 1.169 14.292 2.482 12.778 4.931-0.758 1.227-8.064 1.05-20.759-0.50299zm153.9-2.761c-3.828-3.239-3.838-3.266-1.99-5.547l1.857-2.293 3.482 2.348c3.813 2.568 4.824 5.076 2.958 7.325-1.635 1.97-1.903 1.892-6.307-1.833zm-145.65-5.742c-2.476-0.418-6.902-1.1-9.84-1.517-5.203-0.73698-7.447-2.57-5.515-4.503 0.882-0.882 25.642 1.487 27.492 2.631 0.474 0.293 0.862 1.406 0.862 2.474 0 1.638-0.664 1.92-4.25 1.808-2.337-0.072983-6.274-0.476-8.749-0.893zm135.6-1.276c-2.326-1.701-1.708-5.107 0.99701-5.496 2.793-0.39998 5.126 2.428 3.772 4.573-1.407 2.232-2.651 2.472-4.769 0.92299zm46.899-1.597c-14.051-5.134-45.5-23.257-45.5-26.22 0-2.994 2.432-2.268 13.303 3.973 16.328 9.374 33.791 18.206 34.782 17.594 3.433-2.121-3.681-7.008-30.825-21.174-7.832-4.087-14.465-7.795-14.739-8.239s0.14801-1.345 0.938-2.001c1.158-0.961 4.032 0.16 14.739 5.744 20.786 10.841 30.171 16.115 32.937 18.512 5.186 4.494 6.295 9.596 2.643 12.154-2.68 1.877-2.144 1.899-8.278-0.34299zm-186.08-7.016c-2.983-1.283-7.14-6.539-7.897-9.987-0.676-3.079 1.096-7.704 3.816-9.962 6.547-5.434 19.683-1.288 21.283 6.718 0.637 3.184-1.604 8.917-4.515 11.552-2.108 1.907-9.791 2.924-12.687 1.679zm11.025-6.307c2.388-3.41 1.953-7.32-1.078-9.705-7.701-6.058-17.78 2.6-11.191 9.613 3.025 3.22 10.041 3.273 12.269 0.091995zm-8.244-1.977c-3.127-3.128 0.23-7.345 4.551-5.714 2.725 1.028 2.885 3.029 0.421 5.259-2.173 1.965-3.353 2.074-4.972 0.45502zm183.3-9.272c-20.303-9.717-30.25-14.613-34.75-17.108-4.482-2.484-5.878-4.605-3.854-5.856 0.492-0.305 10.257 3.973 21.697 9.506 21.837 10.56 26.407 12.24 26.407 9.71 0-1.747-2.592-4.228-7.171-6.863-4.146-2.387-31.914-15.909-32.73-15.939-0.329-0.013-1.634-0.818-2.897-1.791-2.256-1.735-2.254-5.187 0.001999-5.187 3.353 0 44.47 21.963 48.956 26.151 3.624 3.383 3.701 7.026 0.20599 9.775-3.618 2.846-5.504 2.561-15.866-2.398zm-56.623-6.176c-1.047-1.263-0.45999-3.99 3.377-15.69 4.728-14.415 8.624-28.551 9.486-34.412 0.549-3.727 3.703-4.576 4.75-1.279 1.309 4.124-12.238 51.335-15.039 52.409-0.718 0.27501-1.876-0.18701-2.574-1.028zm-117.38-2.449c-3.301-0.959-7.351-1.786-9-1.839-4.612-0.146-5.954-1.349-4.513-4.041 1.089-2.036 1.671-2.172 6.654-1.549 9.562 1.194 13.817 2.823 14.192 5.431 0.511 3.541-0.796 3.897-7.333 1.998zm106.86-2.405c-0.618-1.612 1.445-8.969 7.536-26.857 1.658-4.873 3.756-12.188 4.66-16.254 1.762-7.918 2.256-8.738 4.446-7.385 1.198 0.74 1.213 2.036 0.102 8.684-1.373 8.215-6.294 25.335-10.437 36.314-2.446 6.485-5.056 8.759-6.307 5.498zm-7.993-3.984c-0.31401-0.81599 0.773-5.43 2.417-10.25 4.644-13.621 7.608-24.445 9.728-35.514 0.699-3.658 4.488-3.933 4.488-0.326 0 6.547-10.348 42.784-13.229 46.326-1.359 1.672-2.708 1.578-3.404-0.236zm-16.867-3.624c-7.65-4.399-7.153-16.199 0.791-18.821 6.933-2.288 14.628 4.218 13.309 11.251-1.168 6.221-9.069 10.463-14.1 7.57zm8.427-4.525c1.14-1.449 2.073-3.495 2.073-4.546 0-2.315-4.294-6.819-6.5-6.819-2.469 0-6.5 4.624-6.5 7.454 0 3.221 3.264 6.546 6.427 6.546 1.431 0 3.278-1.081 4.5-2.635zm-5.677-2.084c-2.107-0.756-1.49-4.281 0.75-4.281 1.313 0 2 0.666 2 1.94 0 2.205-0.92799 2.995-2.75 2.341zm-87.426 4.868c-3.671-0.917-6.965-1.956-7.319-2.311s-0.055-1.588 0.666-2.741c1.644-2.632 7.163-2.749 14.329-0.30399 4.211 1.437 5 2.1 5 4.206 0 2.076-0.509 2.526-3 2.657-1.65 0.087997-6.004-0.591-9.676-1.507zm180.68-4.473c-28.282-11.631-35.482-15.154-35.492-17.367-0.003998-1.205 0.34001-2.406 0.767-2.67 0.427-0.26299 7.063 2.438 14.75 6.004 15.954 7.4 25.895 11.357 28.535 11.357 2.486 0 3.381-1.764 1.838-3.623-1.331-1.604-12.171-7.247-19.897-10.358-9.775-3.937-21.5-9.188-22.659-10.15-2.151-1.786-0.355-4.121 2.7-3.51 7.582 1.516 43.132 18.775 45.886 22.276 2.284 2.903 2.747 8.291 0.87299 10.165-2.12 2.118-9.056 1.267-17.301-2.124zm-110.98 1.365c-0.32599-0.527 0.055008-3.115 0.84801-5.75 0.79199-2.636 2.418-9.291 3.612-14.791 5.181-23.855 5.527-25 7.58-25 2.797 0 2.624 1.687-2.979 29.025-3.084 15.043-3.988 17.475-6.503 17.475-1.081 0-2.232-0.432-2.558-0.959zm-8.991-1.985c-0.893-1.444 2.396-14.71 5.068-20.45 1.308-2.809 2.382-6.426 2.388-8.04 0.011002-3.432 2.92-14.634 4.158-16.016 0.532-0.595 1.273-0.528 1.979 0.177 1.374 1.375 0 9.63-4.292 25.773-1.608 6.05-3.413 12.912-4.01 15.25-0.77499 3.036-1.603 4.25-2.896 4.25-0.996 0-2.074-0.425-2.395-0.944zm-95.977-25.279c-5.621-8.025 4.58-22.475 37.726-53.435 9.804-9.157 15.006-9.5 16.373-1.078 1.037 6.391-0.097 8.164-9.735 15.239-4.996 3.667-8.892 6.858-8.657 7.092 0.233 0.234 2.325-0.245 4.646-1.064 6.653-2.347 16.402-3.065 17.854-1.315 1.86 2.241-0.572 4.731-5.268 5.392-6.498 0.915-7.075 1.249-4.9 2.839 1.854 1.356 1.844 1.456-0.399 3.844-1.954 2.081-2.967 2.377-6.69 1.958-7.541-0.851-9.374 0.201-20.586 11.804-10.092 10.44-10.772 10.947-14.694 10.947-3.118 0-4.491-0.53799-5.67-2.223zm16.504-12.839c3.338-3.338 1.603-8.325-2.061-5.923-1.329 0.87201-1.33 1.094-0.008999 1.942 1.188 0.764 1.239 1.211 0.25 2.2s-1.241 0.897-1.241-0.457c0-2.102-1.855-2.242-2.639-0.2-0.814 2.122 0.299 4.5 2.107 4.5 0.843 0 2.46-0.92801 3.593-2.062zm20.466-27.431c10.083-7.873 11.657-9.399 10.922-10.588-1.332-2.156-4.182-0.442-12.072 7.258-7.604 7.422-9.503 9.823-7.771 9.823 0.333 0 4.348-2.922 8.921-6.493zm91.885 40.549c-4.439-1.061-5.44-1.88-7.071-5.782-3.02-7.228 1.259-13.274 9.393-13.274 3.704 0 4.958 0.528 7.365 3.105 3.492 3.738 3.688 7.121 0.66901 11.527-1.784 2.605-6.045 5.779-7.065 5.265-0.112-0.056-1.593-0.434-3.291-0.841zm6.973-5.521c2.212-3.377 2.024-6.471-0.56-9.221-2.968-3.159-7.124-3.022-9.753 0.32-1.14 1.449-2.072 3.413-2.072 4.365 0 0.951 0.933 2.916 2.072 4.365 2.814 3.578 8.024 3.664 10.313 0.171zm-7.385-4.608c0-1.432 0.53799-1.97 1.738-1.739 2.606 0.503 2.897 3.813 0.33499 3.813-1.431-9.99e-4 -2.073-0.644-2.073-2.074zm57.039-12.116c-1.122-1.204-2.039-2.713-2.039-3.352 0-2.293 4.61-7.965 6.723-8.271 5.166-0.747 8.534 8.459 4.448 12.156-2.55 2.308-6.712 2.064-9.132-0.533zm-52.539-11.193c-6.601-1.781-14.025-3.925-16.5-4.763-2.476-0.839-10.027-2.82-16.782-4.405-9.593-2.25-12.212-3.217-11.963-4.416 0.42801-2.055 6.868-1.674 16.745 0.989 4.125 1.112 10.624 2.724 14.443 3.581s9.785 2.628 13.256 3.935c7.414 2.79 13.394 3.52 14.028 1.711 0.944-2.689-22.542-10.089-47.102-14.84-9.657-1.868-12.542-3.544-9.522-5.53 1.162-0.765 1.103-1.143-0.354-2.26-0.963-0.737-1.75-1.69-1.75-2.118 0-1.115 11.978 0.261 22.5 2.585 9.95 2.198 36.025 4.721 37.15 3.595 2.113-2.112-3.63-3.339-33.65-7.187-22.896-2.934-27.448-3.855-27.788-5.624-0.451-2.351 3.842-3.128 10.596-1.92 3.13 0.56 13.792 1.928 23.692 3.04 23.057 2.591 27.944 3.688 31.584 7.088 3.506 3.274 3.596 4.206 0.666 6.951-2.08 1.949-3.178 2.085-14.502 1.789-11.488-0.3-15.191 0.249-9.998 1.481 12.046 2.858 25.249 8.678 25.973 11.446 0.76 2.902-0.946 6.197-3.762 7.268-3.413 1.298-3.121 1.339-16.96-2.396zm-72.5-11.136c0-0.285-0.937-4.839-2.081-10.12-1.538-7.098-1.787-9.895-0.958-10.724 1.652-1.653 2.653 0.483 5.005 10.687 2.491 10.81 2.49 10.675 0.033997 10.675-1.101 0-2-0.234-2-0.518zm8.225-1.659c0.216-0.646 2.117-1.66 4.226-2.251 3.855-1.082 6.618-3.837 5.235-5.221-0.409-0.408-3.318-0.768-6.465-0.798-6.697-0.063-8.025-2.343-2.221-3.813 4.356-1.104 6.469-3.075 5.632-5.256-0.534-1.394-1.484-1.555-5.72-0.973-4.924 0.678-5.069 0.627-4.746-1.656 0.305-2.154 0.877-2.381 6.699-2.656 8.148-0.385 10.616 1.386 9.723 6.977-0.332 2.072-0.151 3.976 0.409 4.322 0.552 0.341 1.003 2.399 1.003 4.575 0 3.39-0.466 4.239-3.25 5.938-3.58 2.182-11.178 2.769-10.525 0.812z" fill="#db1111"/>
</svg>
